<svg width="2679" height="594" viewBox="0 0 2679 594" fill="none" xmlns="http://www.w3.org/2000/svg">
<g clip-path="url(#clip0_12_48)">
<rect x="5.00601" y="132.249" width="381.668" height="457.168" rx="45" transform="rotate(-0.0689607 5.00601 132.249)" stroke="black" stroke-width="10"/>
<circle cx="139.866" cy="339" r="81" fill="black" stroke="#5BADAD" stroke-width="16"/>
<path d="M311.337 300.016V343.521C311.307 349.557 309.403 354.493 305.624 358.331C301.874 362.169 296.776 364.322 290.331 364.791L288.089 364.879C281.088 364.879 275.506 362.989 271.346 359.21C267.186 355.431 265.077 350.23 265.018 343.609V300.016H273.368V343.346C273.368 347.975 274.642 351.578 277.191 354.156C279.74 356.705 283.373 357.979 288.089 357.979C292.865 357.979 296.512 356.705 299.032 354.156C301.581 351.607 302.855 348.019 302.855 343.39V300.016H311.337ZM333.705 364H325.267V300.016H333.705V364Z" fill="black"/>
<path d="M66.3351 44.0156V87.5215C66.3058 93.5566 64.4015 98.4932 60.6222 102.331C56.8722 106.169 51.7745 108.322 45.3292 108.791L43.088 108.879C36.0861 108.879 30.505 106.989 26.3448 103.21C22.1847 99.4307 20.0753 94.2305 20.0167 87.6094V44.0156H28.3663V87.3457C28.3663 91.9746 29.6407 95.5781 32.1896 98.1562C34.7384 100.705 38.3712 101.979 43.088 101.979C47.8634 101.979 51.5109 100.705 54.0304 98.1562C56.5792 95.6074 57.8536 92.0186 57.8536 87.3896V44.0156H66.3351ZM88.7032 108H80.2657V44.0156H88.7032V108ZM135.549 108H127.111V44.0156H135.549V108ZM177.429 95.3877C177.429 93.1904 176.594 91.4912 174.924 90.29C173.283 89.0596 170.398 88.0049 166.267 87.126C162.165 86.2471 158.899 85.1924 156.467 83.9619C154.065 82.7314 152.277 81.2666 151.106 79.5674C149.963 77.8682 149.392 75.8467 149.392 73.5029C149.392 69.6064 151.032 66.3105 154.314 63.6152C157.624 60.9199 161.843 59.5723 166.97 59.5723C172.36 59.5723 176.726 60.9639 180.066 63.7471C183.435 66.5303 185.119 70.0898 185.119 74.4258H176.945C176.945 72.1992 175.993 70.2803 174.089 68.6689C172.214 67.0576 169.841 66.252 166.97 66.252C164.011 66.252 161.696 66.8965 160.026 68.1855C158.357 69.4746 157.522 71.1592 157.522 73.2393C157.522 75.2021 158.298 76.6816 159.851 77.6777C161.403 78.6738 164.201 79.626 168.244 80.5342C172.317 81.4424 175.612 82.5264 178.132 83.7861C180.651 85.0459 182.512 86.5693 183.713 88.3564C184.943 90.1143 185.559 92.2676 185.559 94.8164C185.559 99.0645 183.859 102.478 180.461 105.056C177.063 107.604 172.653 108.879 167.234 108.879C163.425 108.879 160.056 108.205 157.126 106.857C154.196 105.51 151.897 103.635 150.227 101.232C148.586 98.8008 147.766 96.1787 147.766 93.3662H155.896C156.042 96.0908 157.126 98.2588 159.148 99.8701C161.198 101.452 163.894 102.243 167.234 102.243C170.31 102.243 172.771 101.628 174.616 100.397C176.491 99.1377 177.429 97.4678 177.429 95.3877ZM193.996 83.7861C193.996 79.1279 194.904 74.9385 196.721 71.2178C198.567 67.4971 201.115 64.626 204.367 62.6045C207.649 60.583 211.384 59.5723 215.573 59.5723C222.048 59.5723 227.277 61.8135 231.262 66.2959C235.276 70.7783 237.282 76.7402 237.282 84.1816V84.7529C237.282 89.3818 236.389 93.542 234.602 97.2334C232.844 100.896 230.31 103.752 226.999 105.803C223.718 107.854 219.939 108.879 215.661 108.879C209.216 108.879 203.986 106.638 199.973 102.155C195.988 97.6729 193.996 91.7402 193.996 84.3574V83.7861ZM202.17 84.7529C202.17 90.0264 203.386 94.2598 205.818 97.4531C208.278 100.646 211.56 102.243 215.661 102.243C219.792 102.243 223.073 100.632 225.505 97.4092C227.937 94.1572 229.152 89.6162 229.152 83.7861C229.152 78.5713 227.907 74.3525 225.417 71.1299C222.956 67.8779 219.675 66.252 215.573 66.252C211.56 66.252 208.322 67.8486 205.861 71.042C203.401 74.2354 202.17 78.8057 202.17 84.7529ZM256.311 108H248.181V40.5H256.311V108ZM298.718 108C298.249 107.062 297.868 105.393 297.575 102.99C293.796 106.916 289.284 108.879 284.04 108.879C279.353 108.879 275.5 107.561 272.483 104.924C269.494 102.258 268 98.8887 268 94.8164C268 89.8652 269.875 86.0273 273.625 83.3027C277.404 80.5488 282.707 79.1719 289.533 79.1719H297.443V75.4365C297.443 72.5947 296.594 70.3389 294.895 68.6689C293.195 66.9697 290.691 66.1201 287.38 66.1201C284.48 66.1201 282.048 66.8525 280.085 68.3174C278.122 69.7822 277.141 71.5547 277.141 73.6348H268.967C268.967 71.2617 269.802 68.9766 271.472 66.7793C273.171 64.5527 275.456 62.7949 278.327 61.5059C281.228 60.2168 284.406 59.5723 287.863 59.5723C293.342 59.5723 297.634 60.9492 300.739 63.7031C303.845 66.4277 305.456 70.1924 305.573 74.9971V96.8818C305.573 101.247 306.13 104.719 307.243 107.297V108H298.718ZM285.227 101.804C287.776 101.804 290.193 101.145 292.478 99.8262C294.763 98.5078 296.418 96.7939 297.443 94.6846V84.9287H291.071C281.11 84.9287 276.13 87.8438 276.13 93.6738C276.13 96.2227 276.98 98.2148 278.679 99.6504C280.378 101.086 282.561 101.804 285.227 101.804ZM329.348 48.9375V60.4512H338.225V66.7354H329.348V96.2227C329.348 98.127 329.743 99.5625 330.534 100.529C331.325 101.467 332.673 101.936 334.577 101.936C335.515 101.936 336.804 101.76 338.444 101.408V108C336.306 108.586 334.226 108.879 332.204 108.879C328.571 108.879 325.832 107.78 323.986 105.583C322.141 103.386 321.218 100.266 321.218 96.2227V66.7354H312.561V60.4512H321.218V48.9375H329.348ZM367.492 108.879C361.047 108.879 355.803 106.77 351.76 102.551C347.717 98.3027 345.695 92.6338 345.695 85.5439V84.0498C345.695 79.333 346.589 75.1289 348.376 71.4375C350.193 67.7168 352.712 64.8164 355.935 62.7363C359.187 60.627 362.702 59.5723 366.482 59.5723C372.663 59.5723 377.468 61.6084 380.896 65.6807C384.323 69.7529 386.037 75.583 386.037 83.1709V86.5547H353.825C353.943 91.2422 355.305 95.0361 357.912 97.9365C360.549 100.808 363.889 102.243 367.932 102.243C370.803 102.243 373.234 101.657 375.227 100.485C377.219 99.3135 378.962 97.7607 380.456 95.8271L385.422 99.6943C381.438 105.817 375.461 108.879 367.492 108.879ZM366.482 66.252C363.2 66.252 360.446 67.4531 358.22 69.8555C355.993 72.2285 354.616 75.5684 354.089 79.875H377.907V79.2598C377.673 75.1289 376.56 71.9355 374.568 69.6797C372.575 67.3945 369.88 66.252 366.482 66.252Z" fill="black"/>
<line x1="1021.86" y1="279.182" x2="1021.86" y2="379.182" stroke="black" stroke-width="18"/>
<line x1="1103.97" y1="236.976" x2="1017.36" y2="286.976" stroke="black" stroke-width="18"/>
<line x1="1181.65" y1="286.976" x2="1095.04" y2="236.976" stroke="black" stroke-width="18"/>
<line x1="1103.97" y1="420.976" x2="1017.36" y2="370.976" stroke="black" stroke-width="18"/>
<line x1="1100.22" y1="329.615" x2="1015.35" y2="280.615" stroke="black"/>
<path d="M1181.47 371.182L1094.86 421.182" stroke="black" stroke-width="18"/>
<path d="M1183.73 280.182L1098.86 329.182" stroke="black"/>
<line x1="1176.86" y1="279.182" x2="1176.86" y2="379.182" stroke="black" stroke-width="18"/>
<line x1="1099.36" y1="329.182" x2="1099.36" y2="427.182" stroke="black"/>
<path d="M1099.36 249.682L1167.86 289.182L1099.33 329.146L1030.86 289.182L1099.36 249.682Z" fill="#005593"/>
<path d="M1099.36 249.682L1167.86 289.182L1099.33 329.146L1030.86 289.182L1099.36 249.682Z" fill="#005593"/>
<path d="M1099.36 249.682L1167.86 289.182L1099.33 329.146L1030.86 289.182L1099.36 249.682Z" fill="#005593"/>
<path d="M1098.86 329.182L1167.86 289.182V368.682L1099.36 408.182L1098.86 329.182Z" fill="#4E84B7"/>
<path d="M1030.86 289.182L1099.36 329.182V408.182L1030.36 368.182L1030.86 289.182Z" fill="#54ACDD"/>
<path d="M1223.29 359V295.016H1244.21C1251.15 295.016 1256.37 296.451 1259.85 299.322C1263.37 302.193 1265.13 306.441 1265.13 312.066C1265.13 315.055 1264.28 317.706 1262.58 320.021C1260.88 322.306 1258.56 324.078 1255.63 325.338C1259.09 326.305 1261.82 328.15 1263.81 330.875C1265.83 333.57 1266.84 336.793 1266.84 340.543C1266.84 346.285 1264.98 350.797 1261.26 354.078C1257.54 357.359 1252.28 359 1245.48 359H1223.29ZM1231.73 329.073V352.101H1245.66C1249.58 352.101 1252.68 351.09 1254.93 349.068C1257.22 347.018 1258.36 344.205 1258.36 340.631C1258.36 332.926 1254.17 329.073 1245.79 329.073H1231.73ZM1231.73 322.306H1244.47C1248.16 322.306 1251.11 321.383 1253.31 319.537C1255.53 317.691 1256.65 315.187 1256.65 312.022C1256.65 308.507 1255.62 305.958 1253.57 304.376C1251.52 302.765 1248.4 301.959 1244.21 301.959H1231.73V322.306ZM1287.85 352.101H1318.17V359H1279.37V295.016H1287.85V352.101ZM1324.37 334.786C1324.37 330.128 1325.27 325.938 1327.09 322.218C1328.94 318.497 1331.48 315.626 1334.74 313.604C1338.02 311.583 1341.75 310.572 1345.94 310.572C1352.42 310.572 1357.65 312.813 1361.63 317.296C1365.64 321.778 1367.65 327.74 1367.65 335.182V335.753C1367.65 340.382 1366.76 344.542 1364.97 348.233C1363.21 351.896 1360.68 354.752 1357.37 356.803C1354.09 358.854 1350.31 359.879 1346.03 359.879C1339.58 359.879 1334.36 357.638 1330.34 353.155C1326.36 348.673 1324.37 342.74 1324.37 335.357V334.786ZM1332.54 335.753C1332.54 341.026 1333.75 345.26 1336.19 348.453C1338.65 351.646 1341.93 353.243 1346.03 353.243C1350.16 353.243 1353.44 351.632 1355.87 348.409C1358.31 345.157 1359.52 340.616 1359.52 334.786C1359.52 329.571 1358.28 325.353 1355.79 322.13C1353.33 318.878 1350.04 317.252 1345.94 317.252C1341.93 317.252 1338.69 318.849 1336.23 322.042C1333.77 325.235 1332.54 329.806 1332.54 335.753ZM1426.19 338.697C1425.4 345.465 1422.89 350.694 1418.67 354.386C1414.48 358.048 1408.9 359.879 1401.93 359.879C1394.37 359.879 1388.31 357.169 1383.74 351.749C1379.19 346.329 1376.92 339.078 1376.92 329.996V323.844C1376.92 317.896 1377.98 312.667 1380.09 308.155C1382.23 303.644 1385.24 300.187 1389.14 297.784C1393.04 295.353 1397.55 294.137 1402.68 294.137C1409.47 294.137 1414.92 296.041 1419.02 299.85C1423.12 303.629 1425.51 308.873 1426.19 315.582H1417.71C1416.97 310.484 1415.38 306.793 1412.92 304.508C1410.48 302.223 1407.07 301.08 1402.68 301.08C1397.29 301.08 1393.05 303.072 1389.98 307.057C1386.93 311.041 1385.41 316.71 1385.41 324.063V330.26C1385.41 337.203 1386.86 342.726 1389.76 346.827C1392.66 350.929 1396.71 352.979 1401.93 352.979C1406.62 352.979 1410.21 351.925 1412.7 349.815C1415.21 347.677 1416.88 343.971 1417.71 338.697H1426.19Z" fill="black"/>
<rect x="957.864" y="97" width="1716" height="492" rx="49" stroke="black" stroke-width="10"/>
<rect x="2003.86" y="262" width="158" height="158" fill="black" stroke="#5BADAD" stroke-width="16"/>
<path d="M2230.76 341.116H2215.73V367H2207.25V303.016H2228.43C2235.64 303.016 2241.17 304.656 2245.04 307.938C2248.94 311.219 2250.88 315.994 2250.88 322.264C2250.88 326.248 2249.8 329.72 2247.63 332.679C2245.49 335.638 2242.51 337.85 2238.67 339.314L2253.7 366.473V367H2244.64L2230.76 341.116ZM2215.73 334.217H2228.69C2232.88 334.217 2236.21 333.133 2238.67 330.965C2241.16 328.797 2242.4 325.896 2242.4 322.264C2242.4 318.309 2241.22 315.276 2238.84 313.167C2236.5 311.058 2233.1 309.988 2228.65 309.959H2215.73V334.217ZM2281.21 367.879C2274.76 367.879 2269.52 365.77 2265.47 361.551C2261.43 357.303 2259.41 351.634 2259.41 344.544V343.05C2259.41 338.333 2260.3 334.129 2262.09 330.438C2263.91 326.717 2266.43 323.816 2269.65 321.736C2272.9 319.627 2276.42 318.572 2280.2 318.572C2286.38 318.572 2291.18 320.608 2294.61 324.681C2298.04 328.753 2299.75 334.583 2299.75 342.171V345.555H2267.54C2267.66 350.242 2269.02 354.036 2271.63 356.937C2274.26 359.808 2277.6 361.243 2281.65 361.243C2284.52 361.243 2286.95 360.657 2288.94 359.485C2290.93 358.313 2292.68 356.761 2294.17 354.827L2299.14 358.694C2295.15 364.817 2289.18 367.879 2281.21 367.879ZM2280.2 325.252C2276.92 325.252 2274.16 326.453 2271.93 328.855C2269.71 331.229 2268.33 334.568 2267.8 338.875H2291.62V338.26C2291.39 334.129 2290.27 330.936 2288.28 328.68C2286.29 326.395 2283.59 325.252 2280.2 325.252ZM2349.37 343.753C2349.37 350.989 2347.71 356.819 2344.4 361.243C2341.09 365.667 2336.61 367.879 2330.95 367.879C2325.18 367.879 2320.64 366.048 2317.33 362.386V385.281H2309.2V319.451H2316.63L2317.02 324.725C2320.33 320.623 2324.93 318.572 2330.82 318.572C2336.53 318.572 2341.05 320.726 2344.36 325.032C2347.7 329.339 2349.37 335.33 2349.37 343.006V343.753ZM2341.24 342.83C2341.24 337.469 2340.09 333.235 2337.81 330.13C2335.52 327.024 2332.39 325.472 2328.4 325.472C2323.48 325.472 2319.79 327.654 2317.33 332.02V354.739C2319.76 359.075 2323.48 361.243 2328.49 361.243C2332.39 361.243 2335.48 359.705 2337.76 356.629C2340.08 353.523 2341.24 348.924 2341.24 342.83ZM2357.58 342.786C2357.58 338.128 2358.49 333.938 2360.31 330.218C2362.15 326.497 2364.7 323.626 2367.96 321.604C2371.24 319.583 2374.97 318.572 2379.16 318.572C2385.64 318.572 2390.87 320.813 2394.85 325.296C2398.86 329.778 2400.87 335.74 2400.87 343.182V343.753C2400.87 348.382 2399.98 352.542 2398.19 356.233C2396.43 359.896 2393.9 362.752 2390.59 364.803C2387.31 366.854 2383.53 367.879 2379.25 367.879C2372.8 367.879 2367.57 365.638 2363.56 361.155C2359.58 356.673 2357.58 350.74 2357.58 343.357V342.786ZM2365.76 343.753C2365.76 349.026 2366.97 353.26 2369.41 356.453C2371.87 359.646 2375.15 361.243 2379.25 361.243C2383.38 361.243 2386.66 359.632 2389.09 356.409C2391.52 353.157 2392.74 348.616 2392.74 342.786C2392.74 337.571 2391.5 333.353 2389 330.13C2386.54 326.878 2383.26 325.252 2379.16 325.252C2375.15 325.252 2371.91 326.849 2369.45 330.042C2366.99 333.235 2365.76 337.806 2365.76 343.753ZM2438.75 354.388C2438.75 352.19 2437.92 350.491 2436.25 349.29C2434.61 348.06 2431.72 347.005 2427.59 346.126C2423.49 345.247 2420.22 344.192 2417.79 342.962C2415.39 341.731 2413.6 340.267 2412.43 338.567C2411.29 336.868 2410.71 334.847 2410.71 332.503C2410.71 328.606 2412.35 325.311 2415.64 322.615C2418.95 319.92 2423.17 318.572 2428.29 318.572C2433.68 318.572 2438.05 319.964 2441.39 322.747C2444.76 325.53 2446.44 329.09 2446.44 333.426H2438.27C2438.27 331.199 2437.32 329.28 2435.41 327.669C2433.54 326.058 2431.16 325.252 2428.29 325.252C2425.33 325.252 2423.02 325.896 2421.35 327.186C2419.68 328.475 2418.84 330.159 2418.84 332.239C2418.84 334.202 2419.62 335.682 2421.17 336.678C2422.73 337.674 2425.52 338.626 2429.57 339.534C2433.64 340.442 2436.93 341.526 2439.45 342.786C2441.97 344.046 2443.83 345.569 2445.04 347.356C2446.27 349.114 2446.88 351.268 2446.88 353.816C2446.88 358.064 2445.18 361.478 2441.78 364.056C2438.38 366.604 2433.98 367.879 2428.56 367.879C2424.75 367.879 2421.38 367.205 2418.45 365.857C2415.52 364.51 2413.22 362.635 2411.55 360.232C2409.91 357.801 2409.09 355.179 2409.09 352.366H2417.22C2417.36 355.091 2418.45 357.259 2420.47 358.87C2422.52 360.452 2425.22 361.243 2428.56 361.243C2431.63 361.243 2434.09 360.628 2435.94 359.397C2437.81 358.138 2438.75 356.468 2438.75 354.388ZM2466.3 367H2458.17V319.451H2466.3V367ZM2457.52 306.839C2457.52 305.521 2457.91 304.407 2458.7 303.499C2459.52 302.591 2460.72 302.137 2462.31 302.137C2463.89 302.137 2465.09 302.591 2465.91 303.499C2466.73 304.407 2467.14 305.521 2467.14 306.839C2467.14 308.157 2466.73 309.256 2465.91 310.135C2465.09 311.014 2463.89 311.453 2462.31 311.453C2460.72 311.453 2459.52 311.014 2458.7 310.135C2457.91 309.256 2457.52 308.157 2457.52 306.839ZM2490.39 307.938V319.451H2499.26V325.735H2490.39V355.223C2490.39 357.127 2490.78 358.562 2491.57 359.529C2492.36 360.467 2493.71 360.936 2495.62 360.936C2496.55 360.936 2497.84 360.76 2499.48 360.408V367C2497.34 367.586 2495.26 367.879 2493.24 367.879C2489.61 367.879 2486.87 366.78 2485.03 364.583C2483.18 362.386 2482.26 359.266 2482.26 355.223V325.735H2473.6V319.451H2482.26V307.938H2490.39ZM2505.77 342.786C2505.77 338.128 2506.68 333.938 2508.49 330.218C2510.34 326.497 2512.89 323.626 2516.14 321.604C2519.42 319.583 2523.16 318.572 2527.34 318.572C2533.82 318.572 2539.05 320.813 2543.03 325.296C2547.05 329.778 2549.05 335.74 2549.05 343.182V343.753C2549.05 348.382 2548.16 352.542 2546.37 356.233C2544.62 359.896 2542.08 362.752 2538.77 364.803C2535.49 366.854 2531.71 367.879 2527.43 367.879C2520.99 367.879 2515.76 365.638 2511.74 361.155C2507.76 356.673 2505.77 350.74 2505.77 343.357V342.786ZM2513.94 343.753C2513.94 349.026 2515.16 353.26 2517.59 356.453C2520.05 359.646 2523.33 361.243 2527.43 361.243C2531.56 361.243 2534.84 359.632 2537.28 356.409C2539.71 353.157 2540.92 348.616 2540.92 342.786C2540.92 337.571 2539.68 333.353 2537.19 330.13C2534.73 326.878 2531.45 325.252 2527.34 325.252C2523.33 325.252 2520.09 326.849 2517.63 330.042C2515.17 333.235 2513.94 337.806 2513.94 343.753ZM2582.23 326.746C2581 326.541 2579.67 326.438 2578.23 326.438C2572.9 326.438 2569.28 328.709 2567.38 333.25V367H2559.25V319.451H2567.16L2567.29 324.944C2569.96 320.696 2573.74 318.572 2578.63 318.572C2580.21 318.572 2581.41 318.777 2582.23 319.188V326.746ZM2606.09 355.091L2617.17 319.451H2625.87L2606.75 374.339C2603.79 382.249 2599.09 386.204 2592.65 386.204L2591.11 386.072L2588.08 385.501V378.909L2590.27 379.085C2593.03 379.085 2595.17 378.528 2596.69 377.415C2598.24 376.302 2599.52 374.266 2600.51 371.307L2602.32 366.473L2585.35 319.451H2594.23L2606.09 355.091Z" fill="black"/>
<path d="M2166.29 83V19.0156H2187.21C2194.15 19.0156 2199.37 20.4512 2202.85 23.3223C2206.37 26.1934 2208.13 30.4414 2208.13 36.0664C2208.13 39.0547 2207.28 41.7061 2205.58 44.0205C2203.88 46.3057 2201.56 48.0781 2198.63 49.3379C2202.09 50.3047 2204.82 52.1504 2206.81 54.875C2208.83 57.5703 2209.84 60.793 2209.84 64.543C2209.84 70.2852 2207.98 74.7969 2204.26 78.0781C2200.54 81.3594 2195.28 83 2188.48 83H2166.29ZM2174.73 53.0732V76.1006H2188.66C2192.58 76.1006 2195.68 75.0898 2197.93 73.0684C2200.22 71.0176 2201.36 68.2051 2201.36 64.6309C2201.36 56.9258 2197.17 53.0732 2188.79 53.0732H2174.73ZM2174.73 46.3057H2187.47C2191.16 46.3057 2194.11 45.3828 2196.31 43.5371C2198.53 41.6914 2199.65 39.1865 2199.65 36.0225C2199.65 32.5068 2198.62 29.958 2196.57 28.376C2194.52 26.7646 2191.4 25.959 2187.21 25.959H2174.73V46.3057ZM2230.85 76.1006H2261.17V83H2222.37V19.0156H2230.85V76.1006ZM2267.37 58.7861C2267.37 54.1279 2268.27 49.9385 2270.09 46.2178C2271.94 42.4971 2274.48 39.626 2277.74 37.6045C2281.02 35.583 2284.75 34.5723 2288.94 34.5723C2295.42 34.5723 2300.65 36.8135 2304.63 41.2959C2308.64 45.7783 2310.65 51.7402 2310.65 59.1816V59.7529C2310.65 64.3818 2309.76 68.542 2307.97 72.2334C2306.21 75.8955 2303.68 78.752 2300.37 80.8027C2297.09 82.8535 2293.31 83.8789 2289.03 83.8789C2282.58 83.8789 2277.36 81.6377 2273.34 77.1553C2269.36 72.6729 2267.37 66.7402 2267.37 59.3574V58.7861ZM2275.54 59.7529C2275.54 65.0264 2276.75 69.2598 2279.19 72.4531C2281.65 75.6465 2284.93 77.2432 2289.03 77.2432C2293.16 77.2432 2296.44 75.6318 2298.87 72.4092C2301.31 69.1572 2302.52 64.6162 2302.52 58.7861C2302.52 53.5713 2301.28 49.3525 2298.79 46.1299C2296.33 42.8779 2293.04 41.252 2288.94 41.252C2284.93 41.252 2281.69 42.8486 2279.23 46.042C2276.77 49.2354 2275.54 53.8057 2275.54 59.7529ZM2369.19 62.6973C2368.4 69.4648 2365.89 74.6943 2361.67 78.3857C2357.48 82.0479 2351.9 83.8789 2344.93 83.8789C2337.37 83.8789 2331.31 81.1689 2326.74 75.749C2322.19 70.3291 2319.92 63.0781 2319.92 53.9961V47.8438C2319.92 41.8965 2320.98 36.667 2323.09 32.1553C2325.23 27.6436 2328.24 24.1865 2332.14 21.7842C2336.04 19.3525 2340.55 18.1367 2345.68 18.1367C2352.47 18.1367 2357.92 20.041 2362.02 23.8496C2366.12 27.6289 2368.51 32.873 2369.19 39.582H2360.71C2359.97 34.4844 2358.38 30.793 2355.92 28.5078C2353.48 26.2227 2350.07 25.0801 2345.68 25.0801C2340.29 25.0801 2336.05 27.0723 2332.98 31.0566C2329.93 35.041 2328.41 40.71 2328.41 48.0635V54.2598C2328.41 61.2031 2329.86 66.7256 2332.76 70.8271C2335.66 74.9287 2339.71 76.9795 2344.93 76.9795C2349.62 76.9795 2353.21 75.9248 2355.7 73.8154C2358.21 71.6768 2359.88 67.9707 2360.71 62.6973H2369.19ZM2412.12 83H2403.68V19.0156H2412.12V83ZM2454 70.3877C2454 68.1904 2453.17 66.4912 2451.5 65.29C2449.86 64.0596 2446.97 63.0049 2442.84 62.126C2438.74 61.2471 2435.47 60.1924 2433.04 58.9619C2430.64 57.7314 2428.85 56.2666 2427.68 54.5674C2426.54 52.8682 2425.96 50.8467 2425.96 48.5029C2425.96 44.6064 2427.6 41.3105 2430.89 38.6152C2434.2 35.9199 2438.42 34.5723 2443.54 34.5723C2448.93 34.5723 2453.3 35.9639 2456.64 38.7471C2460.01 41.5303 2461.69 45.0898 2461.69 49.4258H2453.52C2453.52 47.1992 2452.57 45.2803 2450.66 43.6689C2448.79 42.0576 2446.41 41.252 2443.54 41.252C2440.58 41.252 2438.27 41.8965 2436.6 43.1855C2434.93 44.4746 2434.09 46.1592 2434.09 48.2393C2434.09 50.2021 2434.87 51.6816 2436.42 52.6777C2437.98 53.6738 2440.77 54.626 2444.82 55.5342C2448.89 56.4424 2452.18 57.5264 2454.7 58.7861C2457.22 60.0459 2459.08 61.5693 2460.29 63.3564C2461.52 65.1143 2462.13 67.2676 2462.13 69.8164C2462.13 74.0645 2460.43 77.4775 2457.03 80.0557C2453.63 82.6045 2449.23 83.8789 2443.81 83.8789C2440 83.8789 2436.63 83.2051 2433.7 81.8574C2430.77 80.5098 2428.47 78.6348 2426.8 76.2324C2425.16 73.8008 2424.34 71.1787 2424.34 68.3662H2432.47C2432.61 71.0908 2433.7 73.2588 2435.72 74.8701C2437.77 76.4521 2440.47 77.2432 2443.81 77.2432C2446.88 77.2432 2449.34 76.6279 2451.19 75.3975C2453.06 74.1377 2454 72.4678 2454 70.3877ZM2470.57 58.7861C2470.57 54.1279 2471.48 49.9385 2473.29 46.2178C2475.14 42.4971 2477.69 39.626 2480.94 37.6045C2484.22 35.583 2487.96 34.5723 2492.15 34.5723C2498.62 34.5723 2503.85 36.8135 2507.83 41.2959C2511.85 45.7783 2513.85 51.7402 2513.85 59.1816V59.7529C2513.85 64.3818 2512.96 68.542 2511.17 72.2334C2509.42 75.8955 2506.88 78.752 2503.57 80.8027C2500.29 82.8535 2496.51 83.8789 2492.23 83.8789C2485.79 83.8789 2480.56 81.6377 2476.54 77.1553C2472.56 72.6729 2470.57 66.7402 2470.57 59.3574V58.7861ZM2478.74 59.7529C2478.74 65.0264 2479.96 69.2598 2482.39 72.4531C2484.85 75.6465 2488.13 77.2432 2492.23 77.2432C2496.36 77.2432 2499.65 75.6318 2502.08 72.4092C2504.51 69.1572 2505.72 64.6162 2505.72 58.7861C2505.72 53.5713 2504.48 49.3525 2501.99 46.1299C2499.53 42.8779 2496.25 41.252 2492.15 41.252C2488.13 41.252 2484.89 42.8486 2482.43 46.042C2479.97 49.2354 2478.74 53.8057 2478.74 59.7529ZM2532.88 83H2524.75V15.5H2532.88V83ZM2575.29 83C2574.82 82.0625 2574.44 80.3926 2574.15 77.9902C2570.37 81.916 2565.86 83.8789 2560.61 83.8789C2555.92 83.8789 2552.07 82.5605 2549.05 79.9238C2546.07 77.2578 2544.57 73.8887 2544.57 69.8164C2544.57 64.8652 2546.45 61.0273 2550.2 58.3027C2553.98 55.5488 2559.28 54.1719 2566.11 54.1719H2574.02V50.4365C2574.02 47.5947 2573.17 45.3389 2571.47 43.6689C2569.77 41.9697 2567.26 41.1201 2563.95 41.1201C2561.05 41.1201 2558.62 41.8525 2556.66 43.3174C2554.69 44.7822 2553.71 46.5547 2553.71 48.6348H2545.54C2545.54 46.2617 2546.37 43.9766 2548.04 41.7793C2549.74 39.5527 2552.03 37.7949 2554.9 36.5059C2557.8 35.2168 2560.98 34.5723 2564.44 34.5723C2569.91 34.5723 2574.21 35.9492 2577.31 38.7031C2580.42 41.4277 2582.03 45.1924 2582.15 49.9971V71.8818C2582.15 76.2471 2582.7 79.7188 2583.82 82.2969V83H2575.29ZM2561.8 76.8037C2564.35 76.8037 2566.76 76.1445 2569.05 74.8262C2571.33 73.5078 2572.99 71.7939 2574.02 69.6846V59.9287H2567.64C2557.68 59.9287 2552.7 62.8438 2552.7 68.6738C2552.7 71.2227 2553.55 73.2148 2555.25 74.6504C2556.95 76.0859 2559.13 76.8037 2561.8 76.8037ZM2605.92 23.9375V35.4512H2614.8V41.7354H2605.92V71.2227C2605.92 73.127 2606.32 74.5625 2607.11 75.5293C2607.9 76.4668 2609.25 76.9355 2611.15 76.9355C2612.09 76.9355 2613.38 76.7598 2615.02 76.4082V83C2612.88 83.5859 2610.8 83.8789 2608.78 83.8789C2605.14 83.8789 2602.4 82.7803 2600.56 80.583C2598.71 78.3857 2597.79 75.2656 2597.79 71.2227V41.7354H2589.13V35.4512H2597.79V23.9375H2605.92ZM2644.06 83.8789C2637.62 83.8789 2632.38 81.7695 2628.33 77.5508C2624.29 73.3027 2622.27 67.6338 2622.27 60.5439V59.0498C2622.27 54.333 2623.16 50.1289 2624.95 46.4375C2626.76 42.7168 2629.28 39.8164 2632.51 37.7363C2635.76 35.627 2639.27 34.5723 2643.05 34.5723C2649.24 34.5723 2654.04 36.6084 2657.47 40.6807C2660.9 44.7529 2662.61 50.583 2662.61 58.1709V61.5547H2630.4C2630.51 66.2422 2631.88 70.0361 2634.48 72.9365C2637.12 75.8076 2640.46 77.2432 2644.5 77.2432C2647.38 77.2432 2649.81 76.6572 2651.8 75.4854C2653.79 74.3135 2655.53 72.7607 2657.03 70.8271L2661.99 74.6943C2658.01 80.8174 2652.03 83.8789 2644.06 83.8789ZM2643.05 41.252C2639.77 41.252 2637.02 42.4531 2634.79 44.8555C2632.57 47.2285 2631.19 50.5684 2630.66 54.875H2654.48V54.2598C2654.25 50.1289 2653.13 46.9355 2651.14 44.6797C2649.15 42.3945 2646.45 41.252 2643.05 41.252Z" fill="black"/>
<path d="M1485.86 277C1597.36 215.077 1815.96 213.594 1938.86 277" stroke="black" stroke-width="8"/>
<line x1="1941.76" y1="278.325" x2="1925.32" y2="246.853" stroke="black" stroke-width="8"/>
<line x1="1906.54" y1="279.877" x2="1941.94" y2="277.013" stroke="black" stroke-width="8"/>
<circle cx="1942.86" cy="278" r="3" fill="black"/>
<path d="M1609 178.868H1597.32V199H1590.72V149.234H1607.19C1612.8 149.234 1617.11 150.51 1620.11 153.062C1623.14 155.615 1624.66 159.329 1624.66 164.205C1624.66 167.304 1623.82 170.004 1622.13 172.306C1620.47 174.607 1618.14 176.327 1615.16 177.467L1626.85 198.59V199H1619.81L1609 178.868ZM1597.32 173.502H1607.4C1610.66 173.502 1613.24 172.659 1615.16 170.973C1617.09 169.286 1618.06 167.031 1618.06 164.205C1618.06 161.129 1617.14 158.771 1615.29 157.13C1613.47 155.489 1610.83 154.658 1607.36 154.635H1597.32V173.502ZM1648.24 199.684C1643.23 199.684 1639.15 198.043 1636.01 194.762C1632.86 191.458 1631.29 187.049 1631.29 181.534V180.372C1631.29 176.703 1631.99 173.434 1633.38 170.562C1634.79 167.669 1636.75 165.413 1639.25 163.795C1641.78 162.154 1644.52 161.334 1647.46 161.334C1652.26 161.334 1656 162.918 1658.67 166.085C1661.33 169.252 1662.67 173.787 1662.67 179.688V182.32H1637.61C1637.7 185.966 1638.76 188.917 1640.79 191.173C1642.84 193.406 1645.44 194.522 1648.58 194.522C1650.82 194.522 1652.71 194.067 1654.26 193.155C1655.81 192.244 1657.16 191.036 1658.33 189.532L1662.19 192.54C1659.09 197.302 1654.44 199.684 1648.24 199.684ZM1647.46 166.529C1644.9 166.529 1642.76 167.464 1641.03 169.332C1639.3 171.178 1638.23 173.775 1637.82 177.125H1656.34V176.646C1656.16 173.434 1655.3 170.95 1653.75 169.195C1652.2 167.418 1650.1 166.529 1647.46 166.529ZM1668.48 180.201C1668.48 174.391 1669.81 169.799 1672.48 166.427C1675.14 163.032 1678.72 161.334 1683.21 161.334C1687.58 161.334 1691.04 162.804 1693.57 165.743L1693.84 162.018H1699.65V213.219H1693.33V195.582C1690.77 198.316 1687.38 199.684 1683.14 199.684C1678.67 199.684 1675.11 197.952 1672.44 194.488C1669.8 191.002 1668.48 186.388 1668.48 180.646V180.201ZM1674.8 180.919C1674.8 185.157 1675.69 188.484 1677.47 190.899C1679.27 193.315 1681.68 194.522 1684.71 194.522C1688.47 194.522 1691.34 192.859 1693.33 189.532V171.417C1691.32 168.159 1688.47 166.529 1684.78 166.529C1681.73 166.529 1679.3 167.748 1677.5 170.187C1675.7 172.602 1674.8 176.179 1674.8 180.919ZM1732.63 195.343C1730.17 198.237 1726.56 199.684 1721.8 199.684C1717.86 199.684 1714.85 198.544 1712.77 196.266C1710.72 193.964 1709.69 190.569 1709.66 186.08V162.018H1715.99V185.909C1715.99 191.515 1718.27 194.317 1722.82 194.317C1727.65 194.317 1730.87 192.517 1732.46 188.917V162.018H1738.79V199H1732.77L1732.63 195.343ZM1763.77 199.684C1758.76 199.684 1754.68 198.043 1751.53 194.762C1748.39 191.458 1746.82 187.049 1746.82 181.534V180.372C1746.82 176.703 1747.51 173.434 1748.9 170.562C1750.32 167.669 1752.27 165.413 1754.78 163.795C1757.31 162.154 1760.04 161.334 1762.98 161.334C1767.79 161.334 1771.53 162.918 1774.2 166.085C1776.86 169.252 1778.19 173.787 1778.19 179.688V182.32H1753.14C1753.23 185.966 1754.29 188.917 1756.32 191.173C1758.37 193.406 1760.97 194.522 1764.11 194.522C1766.35 194.522 1768.24 194.067 1769.79 193.155C1771.34 192.244 1772.69 191.036 1773.85 189.532L1777.72 192.54C1774.62 197.302 1769.97 199.684 1763.77 199.684ZM1762.98 166.529C1760.43 166.529 1758.29 167.464 1756.56 169.332C1754.83 171.178 1753.76 173.775 1753.35 177.125H1771.87V176.646C1771.69 173.434 1770.82 170.95 1769.27 169.195C1767.72 167.418 1765.63 166.529 1762.98 166.529ZM1807.08 189.19C1807.08 187.481 1806.43 186.16 1805.13 185.226C1803.85 184.269 1801.61 183.448 1798.39 182.765C1795.2 182.081 1792.66 181.261 1790.77 180.304C1788.9 179.347 1787.51 178.207 1786.6 176.886C1785.71 175.564 1785.27 173.992 1785.27 172.169C1785.27 169.138 1786.55 166.575 1789.1 164.479C1791.67 162.382 1794.95 161.334 1798.94 161.334C1803.13 161.334 1806.53 162.416 1809.13 164.581C1811.75 166.746 1813.06 169.514 1813.06 172.887H1806.7C1806.7 171.155 1805.96 169.662 1804.48 168.409C1803.02 167.156 1801.17 166.529 1798.94 166.529C1796.64 166.529 1794.84 167.031 1793.54 168.033C1792.24 169.036 1791.59 170.346 1791.59 171.964C1791.59 173.491 1792.2 174.641 1793.4 175.416C1794.61 176.191 1796.79 176.931 1799.93 177.638C1803.1 178.344 1805.66 179.187 1807.62 180.167C1809.58 181.147 1811.03 182.332 1811.96 183.722C1812.92 185.089 1813.4 186.764 1813.4 188.746C1813.4 192.05 1812.08 194.705 1809.43 196.71C1806.79 198.692 1803.36 199.684 1799.15 199.684C1796.18 199.684 1793.56 199.16 1791.29 198.111C1789.01 197.063 1787.22 195.605 1785.92 193.736C1784.64 191.845 1784 189.806 1784 187.618H1790.33C1790.44 189.737 1791.29 191.424 1792.86 192.677C1794.45 193.907 1796.55 194.522 1799.15 194.522C1801.54 194.522 1803.45 194.044 1804.89 193.087C1806.35 192.107 1807.08 190.808 1807.08 189.19ZM1830.22 153.062V162.018H1837.12V166.905H1830.22V189.84C1830.22 191.321 1830.52 192.438 1831.14 193.189C1831.75 193.919 1832.8 194.283 1834.28 194.283C1835.01 194.283 1836.01 194.146 1837.29 193.873V199C1835.63 199.456 1834.01 199.684 1832.44 199.684C1829.61 199.684 1827.48 198.829 1826.05 197.12C1824.61 195.411 1823.89 192.984 1823.89 189.84V166.905H1817.16V162.018H1823.89V153.062H1830.22Z" fill="black"/>
<path d="M1939.86 416.864C1828.37 478.787 1609.77 480.27 1486.86 416.864" stroke="black" stroke-width="8"/>
<line x1="1483.96" y1="415.538" x2="1500.41" y2="447.011" stroke="black" stroke-width="8"/>
<line x1="1519.19" y1="413.987" x2="1483.79" y2="416.851" stroke="black" stroke-width="8"/>
<circle cx="1482.86" cy="415.864" r="3" transform="rotate(-180 1482.86 415.864)" fill="black"/>
<path d="M1583.69 535.868H1572V556H1565.4V506.234H1581.88C1587.48 506.234 1591.79 507.51 1594.79 510.062C1597.83 512.615 1599.34 516.329 1599.34 521.205C1599.34 524.304 1598.5 527.004 1596.81 529.306C1595.15 531.607 1592.82 533.327 1589.84 534.467L1601.53 555.59V556H1594.49L1583.69 535.868ZM1572 530.502H1582.08C1585.34 530.502 1587.92 529.659 1589.84 527.973C1591.78 526.286 1592.74 524.031 1592.74 521.205C1592.74 518.129 1591.82 515.771 1589.98 514.13C1588.15 512.489 1585.51 511.658 1582.05 511.635H1572V530.502ZM1622.92 556.684C1617.91 556.684 1613.83 555.043 1610.69 551.762C1607.54 548.458 1605.97 544.049 1605.97 538.534V537.372C1605.97 533.703 1606.67 530.434 1608.06 527.562C1609.47 524.669 1611.43 522.413 1613.94 520.795C1616.46 519.154 1619.2 518.334 1622.14 518.334C1626.95 518.334 1630.68 519.918 1633.35 523.085C1636.02 526.252 1637.35 530.787 1637.35 536.688V539.32H1612.29C1612.39 542.966 1613.45 545.917 1615.47 548.173C1617.52 550.406 1620.12 551.522 1623.27 551.522C1625.5 551.522 1627.39 551.067 1628.94 550.155C1630.49 549.244 1631.85 548.036 1633.01 546.532L1636.87 549.54C1633.77 554.302 1629.12 556.684 1622.92 556.684ZM1622.14 523.529C1619.59 523.529 1617.44 524.464 1615.71 526.332C1613.98 528.178 1612.91 530.775 1612.5 534.125H1631.03V533.646C1630.84 530.434 1629.98 527.95 1628.43 526.195C1626.88 524.418 1624.78 523.529 1622.14 523.529ZM1666.23 546.19C1666.23 544.481 1665.58 543.16 1664.28 542.226C1663.01 541.269 1660.76 540.448 1657.55 539.765C1654.36 539.081 1651.82 538.261 1649.93 537.304C1648.06 536.347 1646.67 535.207 1645.76 533.886C1644.87 532.564 1644.42 530.992 1644.42 529.169C1644.42 526.138 1645.7 523.575 1648.25 521.479C1650.83 519.382 1654.11 518.334 1658.1 518.334C1662.29 518.334 1665.68 519.416 1668.28 521.581C1670.9 523.746 1672.21 526.514 1672.21 529.887H1665.85C1665.85 528.155 1665.11 526.662 1663.63 525.409C1662.17 524.156 1660.33 523.529 1658.1 523.529C1655.79 523.529 1653.99 524.031 1652.7 525.033C1651.4 526.036 1650.75 527.346 1650.75 528.964C1650.75 530.491 1651.35 531.641 1652.56 532.416C1653.77 533.191 1655.94 533.931 1659.09 534.638C1662.25 535.344 1664.82 536.187 1666.78 537.167C1668.74 538.147 1670.18 539.332 1671.12 540.722C1672.08 542.089 1672.55 543.764 1672.55 545.746C1672.55 549.05 1671.23 551.705 1668.59 553.71C1665.95 555.692 1662.52 556.684 1658.3 556.684C1655.34 556.684 1652.72 556.16 1650.44 555.111C1648.16 554.063 1646.37 552.605 1645.07 550.736C1643.8 548.845 1643.16 546.806 1643.16 544.618H1649.48C1649.6 546.737 1650.44 548.424 1652.01 549.677C1653.61 550.907 1655.7 551.522 1658.3 551.522C1660.69 551.522 1662.61 551.044 1664.04 550.087C1665.5 549.107 1666.23 547.808 1666.23 546.19ZM1712.03 537.919C1712.03 543.547 1710.74 548.082 1708.17 551.522C1705.59 554.963 1702.11 556.684 1697.71 556.684C1693.22 556.684 1689.69 555.259 1687.11 552.411V570.219H1680.79V519.018H1686.57L1686.88 523.119C1689.45 519.929 1693.03 518.334 1697.61 518.334C1702.05 518.334 1705.56 520.009 1708.13 523.358C1710.73 526.708 1712.03 531.368 1712.03 537.338V537.919ZM1705.71 537.201C1705.71 533.031 1704.82 529.739 1703.04 527.323C1701.26 524.908 1698.83 523.7 1695.73 523.7C1691.9 523.7 1689.03 525.398 1687.11 528.793V546.464C1689.01 549.836 1691.9 551.522 1695.8 551.522C1698.83 551.522 1701.23 550.326 1703.01 547.934C1704.81 545.518 1705.71 541.941 1705.71 537.201ZM1718.42 537.167C1718.42 533.544 1719.13 530.285 1720.54 527.392C1721.98 524.498 1723.96 522.265 1726.49 520.692C1729.04 519.12 1731.95 518.334 1735.21 518.334C1740.24 518.334 1744.31 520.077 1747.41 523.563C1750.53 527.05 1752.09 531.687 1752.09 537.475V537.919C1752.09 541.519 1751.39 544.755 1750 547.626C1748.64 550.474 1746.67 552.696 1744.09 554.291C1741.54 555.886 1738.6 556.684 1735.27 556.684C1730.26 556.684 1726.19 554.94 1723.07 551.454C1719.97 547.968 1718.42 543.354 1718.42 537.611V537.167ZM1724.78 537.919C1724.78 542.021 1725.73 545.313 1727.62 547.797C1729.53 550.281 1732.08 551.522 1735.27 551.522C1738.49 551.522 1741.04 550.269 1742.93 547.763C1744.82 545.233 1745.77 541.701 1745.77 537.167C1745.77 533.111 1744.8 529.83 1742.86 527.323C1740.95 524.794 1738.4 523.529 1735.21 523.529C1732.08 523.529 1729.57 524.771 1727.65 527.255C1725.74 529.739 1724.78 533.293 1724.78 537.919ZM1766 519.018L1766.21 523.666C1769.03 520.111 1772.72 518.334 1777.28 518.334C1785.1 518.334 1789.04 522.743 1789.11 531.562V556H1782.78V531.527C1782.76 528.861 1782.15 526.89 1780.94 525.614C1779.75 524.338 1777.9 523.7 1775.37 523.7C1773.32 523.7 1771.52 524.247 1769.97 525.341C1768.42 526.435 1767.21 527.87 1766.34 529.647V556H1760.02V519.018H1766ZM1820.18 546.19C1820.18 544.481 1819.53 543.16 1818.23 542.226C1816.95 541.269 1814.71 540.448 1811.49 539.765C1808.3 539.081 1805.76 538.261 1803.87 537.304C1802 536.347 1800.61 535.207 1799.7 533.886C1798.81 532.564 1798.37 530.992 1798.37 529.169C1798.37 526.138 1799.65 523.575 1802.2 521.479C1804.77 519.382 1808.05 518.334 1812.04 518.334C1816.23 518.334 1819.63 519.416 1822.23 521.581C1824.85 523.746 1826.16 526.514 1826.16 529.887H1819.8C1819.8 528.155 1819.06 526.662 1817.58 525.409C1816.12 524.156 1814.27 523.529 1812.04 523.529C1809.74 523.529 1807.94 524.031 1806.64 525.033C1805.34 526.036 1804.69 527.346 1804.69 528.964C1804.69 530.491 1805.3 531.641 1806.5 532.416C1807.71 533.191 1809.89 533.931 1813.03 534.638C1816.2 535.344 1818.76 536.187 1820.72 537.167C1822.68 538.147 1824.13 539.332 1825.06 540.722C1826.02 542.089 1826.5 543.764 1826.5 545.746C1826.5 549.05 1825.18 551.705 1822.53 553.71C1819.89 555.692 1816.46 556.684 1812.25 556.684C1809.28 556.684 1806.66 556.16 1804.38 555.111C1802.11 554.063 1800.32 552.605 1799.02 550.736C1797.74 548.845 1797.1 546.806 1797.1 544.618H1803.43C1803.54 546.737 1804.38 548.424 1805.96 549.677C1807.55 550.907 1809.65 551.522 1812.25 551.522C1814.64 551.522 1816.55 551.044 1817.99 550.087C1819.45 549.107 1820.18 547.808 1820.18 546.19ZM1850.08 556.684C1845.07 556.684 1840.99 555.043 1837.85 551.762C1834.7 548.458 1833.13 544.049 1833.13 538.534V537.372C1833.13 533.703 1833.82 530.434 1835.21 527.562C1836.63 524.669 1838.59 522.413 1841.09 520.795C1843.62 519.154 1846.36 518.334 1849.3 518.334C1854.1 518.334 1857.84 519.918 1860.51 523.085C1863.17 526.252 1864.51 530.787 1864.51 536.688V539.32H1839.45C1839.54 542.966 1840.6 545.917 1842.63 548.173C1844.68 550.406 1847.28 551.522 1850.42 551.522C1852.66 551.522 1854.55 551.067 1856.1 550.155C1857.65 549.244 1859 548.036 1860.17 546.532L1864.03 549.54C1860.93 554.302 1856.28 556.684 1850.08 556.684ZM1849.3 523.529C1846.74 523.529 1844.6 524.464 1842.87 526.332C1841.14 528.178 1840.07 530.775 1839.66 534.125H1858.18V533.646C1858 530.434 1857.14 527.95 1855.59 526.195C1854.04 524.418 1851.94 523.529 1849.3 523.529Z" fill="black"/>
<path d="M442.864 270C554.358 208.077 772.957 206.594 895.864 270" stroke="black" stroke-width="8"/>
<line x1="898.765" y1="271.325" x2="882.319" y2="239.853" stroke="black" stroke-width="8"/>
<line x1="863.542" y1="272.877" x2="898.937" y2="270.013" stroke="black" stroke-width="8"/>
<circle cx="899.864" cy="271" r="3" fill="black"/>
<path d="M599.74 168.997H578.173V186.634H603.227V192H571.61V142.234H602.885V147.635H578.173V163.631H599.74V168.997ZM621.718 183.421L630.878 155.018H637.338L624.076 192H619.257L605.858 155.018H612.318L621.718 183.421ZM658.29 192.684C653.277 192.684 649.198 191.043 646.054 187.762C642.909 184.458 641.337 180.049 641.337 174.534V173.372C641.337 169.703 642.032 166.434 643.422 163.562C644.835 160.669 646.794 158.413 649.301 156.795C651.83 155.154 654.564 154.334 657.504 154.334C662.312 154.334 666.049 155.918 668.715 159.085C671.381 162.252 672.714 166.787 672.714 172.688V175.32H647.66C647.751 178.966 648.811 181.917 650.839 184.173C652.89 186.406 655.487 187.522 658.632 187.522C660.865 187.522 662.756 187.067 664.306 186.155C665.855 185.244 667.211 184.036 668.373 182.532L672.235 185.54C669.136 190.302 664.488 192.684 658.29 192.684ZM657.504 159.529C654.952 159.529 652.81 160.464 651.078 162.332C649.346 164.178 648.275 166.775 647.865 170.125H666.391V169.646C666.208 166.434 665.342 163.95 663.793 162.195C662.243 160.418 660.147 159.529 657.504 159.529ZM686.044 155.018L686.249 159.666C689.075 156.111 692.766 154.334 697.323 154.334C705.139 154.334 709.081 158.743 709.149 167.562V192H702.826V167.527C702.803 164.861 702.188 162.89 700.98 161.614C699.796 160.338 697.938 159.7 695.409 159.7C693.358 159.7 691.558 160.247 690.009 161.341C688.459 162.435 687.252 163.87 686.386 165.647V192H680.062V155.018H686.044ZM727.265 146.062V155.018H734.169V159.905H727.265V182.84C727.265 184.321 727.572 185.438 728.188 186.189C728.803 186.919 729.851 187.283 731.332 187.283C732.061 187.283 733.064 187.146 734.34 186.873V192C732.676 192.456 731.059 192.684 729.486 192.684C726.661 192.684 724.53 191.829 723.095 190.12C721.659 188.411 720.941 185.984 720.941 182.84V159.905H714.208V155.018H720.941V146.062H727.265ZM763.119 182.19C763.119 180.481 762.47 179.16 761.171 178.226C759.895 177.269 757.65 176.448 754.438 175.765C751.247 175.081 748.707 174.261 746.815 173.304C744.947 172.347 743.557 171.207 742.646 169.886C741.757 168.564 741.312 166.992 741.312 165.169C741.312 162.138 742.589 159.575 745.141 157.479C747.715 155.382 750.997 154.334 754.984 154.334C759.177 154.334 762.572 155.416 765.17 157.581C767.79 159.746 769.101 162.514 769.101 165.887H762.743C762.743 164.155 762.003 162.662 760.521 161.409C759.063 160.156 757.217 159.529 754.984 159.529C752.683 159.529 750.883 160.031 749.584 161.033C748.285 162.036 747.636 163.346 747.636 164.964C747.636 166.491 748.24 167.641 749.447 168.416C750.655 169.191 752.831 169.931 755.976 170.638C759.143 171.344 761.706 172.187 763.666 173.167C765.626 174.147 767.073 175.332 768.007 176.722C768.964 178.089 769.442 179.764 769.442 181.746C769.442 185.05 768.121 187.705 765.478 189.71C762.834 191.692 759.405 192.684 755.189 192.684C752.227 192.684 749.607 192.16 747.328 191.111C745.049 190.063 743.261 188.605 741.962 186.736C740.686 184.845 740.048 182.806 740.048 180.618H746.371C746.485 182.737 747.328 184.424 748.9 185.677C750.495 186.907 752.592 187.522 755.189 187.522C757.582 187.522 759.496 187.044 760.932 186.087C762.39 185.107 763.119 183.808 763.119 182.19Z" fill="black"/>
<path d="M902.864 446.864C791.37 508.787 572.771 510.27 449.864 446.864" stroke="black" stroke-width="8"/>
<line x1="446.964" y1="445.538" x2="463.409" y2="477.011" stroke="black" stroke-width="8"/>
<line x1="482.187" y1="443.987" x2="446.792" y2="446.851" stroke="black" stroke-width="8"/>
<circle cx="445.864" cy="445.864" r="3" transform="rotate(-180 445.864 445.864)" fill="black"/>
<path d="M597.478 563.817C591.849 562.2 587.748 560.217 585.173 557.87C582.621 555.5 581.345 552.584 581.345 549.12C581.345 545.201 582.906 541.965 586.027 539.413C589.172 536.838 593.251 535.551 598.264 535.551C601.682 535.551 604.724 536.212 607.39 537.533C610.078 538.855 612.152 540.678 613.61 543.002C615.091 545.326 615.832 547.867 615.832 550.624H609.235C609.235 547.616 608.278 545.258 606.364 543.549C604.45 541.817 601.75 540.951 598.264 540.951C595.028 540.951 592.499 541.669 590.676 543.104C588.876 544.517 587.976 546.488 587.976 549.018C587.976 551.046 588.83 552.766 590.539 554.179C592.271 555.569 595.199 556.845 599.323 558.007C603.47 559.169 606.706 560.456 609.03 561.869C611.377 563.259 613.109 564.888 614.226 566.757C615.365 568.625 615.935 570.824 615.935 573.354C615.935 577.387 614.362 580.622 611.218 583.061C608.073 585.476 603.869 586.684 598.605 586.684C595.188 586.684 591.997 586.034 589.035 584.735C586.073 583.414 583.783 581.614 582.165 579.335C580.57 577.056 579.772 574.47 579.772 571.576H586.369C586.369 574.584 587.474 576.965 589.685 578.72C591.918 580.451 594.891 581.317 598.605 581.317C602.069 581.317 604.724 580.611 606.569 579.198C608.415 577.785 609.338 575.86 609.338 573.422C609.338 570.984 608.483 569.104 606.774 567.782C605.065 566.438 601.966 565.116 597.478 563.817ZM631.965 540.062V549.018H638.869V553.905H631.965V576.84C631.965 578.321 632.272 579.438 632.888 580.189C633.503 580.919 634.551 581.283 636.032 581.283C636.761 581.283 637.764 581.146 639.04 580.873V586C637.377 586.456 635.759 586.684 634.187 586.684C631.361 586.684 629.23 585.829 627.795 584.12C626.359 582.411 625.642 579.984 625.642 576.84V553.905H618.908V549.018H625.642V540.062H631.965ZM669.118 586C668.754 585.271 668.457 583.972 668.229 582.104C665.29 585.157 661.781 586.684 657.702 586.684C654.056 586.684 651.06 585.658 648.713 583.607C646.389 581.534 645.227 578.913 645.227 575.746C645.227 571.895 646.685 568.91 649.602 566.791C652.541 564.649 656.665 563.578 661.975 563.578H668.127V560.673C668.127 558.463 667.466 556.708 666.145 555.409C664.823 554.088 662.875 553.427 660.3 553.427C658.044 553.427 656.153 553.996 654.626 555.136C653.099 556.275 652.336 557.654 652.336 559.271H645.979C645.979 557.426 646.628 555.648 647.927 553.939C649.248 552.208 651.026 550.84 653.259 549.838C655.515 548.835 657.987 548.334 660.676 548.334C664.937 548.334 668.275 549.405 670.69 551.547C673.106 553.666 674.359 556.594 674.45 560.331V577.353C674.45 580.748 674.883 583.448 675.749 585.453V586H669.118ZM658.625 581.181C660.607 581.181 662.487 580.668 664.265 579.643C666.042 578.617 667.329 577.284 668.127 575.644V568.056H663.171C655.424 568.056 651.55 570.323 651.55 574.857C651.55 576.84 652.211 578.389 653.532 579.506C654.854 580.622 656.551 581.181 658.625 581.181ZM692.941 540.062V549.018H699.846V553.905H692.941V576.84C692.941 578.321 693.249 579.438 693.864 580.189C694.479 580.919 695.528 581.283 697.009 581.283C697.738 581.283 698.741 581.146 700.017 580.873V586C698.353 586.456 696.735 586.684 695.163 586.684C692.338 586.684 690.207 585.829 688.771 584.12C687.336 582.411 686.618 579.984 686.618 576.84V553.905H679.885V549.018H686.618V540.062H692.941ZM722.609 586.684C717.596 586.684 713.518 585.043 710.373 581.762C707.229 578.458 705.656 574.049 705.656 568.534V567.372C705.656 563.703 706.351 560.434 707.741 557.562C709.154 554.669 711.114 552.413 713.62 550.795C716.149 549.154 718.884 548.334 721.823 548.334C726.631 548.334 730.368 549.918 733.034 553.085C735.7 556.252 737.033 560.787 737.033 566.688V569.32H711.979C712.071 572.966 713.13 575.917 715.158 578.173C717.209 580.406 719.807 581.522 722.951 581.522C725.184 581.522 727.076 581.067 728.625 580.155C730.174 579.244 731.53 578.036 732.692 576.532L736.555 579.54C733.456 584.302 728.807 586.684 722.609 586.684ZM721.823 553.529C719.271 553.529 717.129 554.464 715.397 556.332C713.666 558.178 712.595 560.775 712.185 564.125H730.71V563.646C730.528 560.434 729.662 557.95 728.112 556.195C726.563 554.418 724.466 553.529 721.823 553.529ZM765.915 576.19C765.915 574.481 765.266 573.16 763.967 572.226C762.691 571.269 760.446 570.448 757.233 569.765C754.043 569.081 751.503 568.261 749.611 567.304C747.743 566.347 746.353 565.207 745.441 563.886C744.553 562.564 744.108 560.992 744.108 559.169C744.108 556.138 745.384 553.575 747.937 551.479C750.511 549.382 753.793 548.334 757.78 548.334C761.973 548.334 765.368 549.416 767.966 551.581C770.586 553.746 771.896 556.514 771.896 559.887H765.539C765.539 558.155 764.799 556.662 763.317 555.409C761.859 554.156 760.013 553.529 757.78 553.529C755.479 553.529 753.679 554.031 752.38 555.033C751.081 556.036 750.432 557.346 750.432 558.964C750.432 560.491 751.035 561.641 752.243 562.416C753.451 563.191 755.627 563.931 758.771 564.638C761.939 565.344 764.502 566.187 766.462 567.167C768.422 568.147 769.868 569.332 770.803 570.722C771.76 572.089 772.238 573.764 772.238 575.746C772.238 579.05 770.917 581.705 768.273 583.71C765.63 585.692 762.201 586.684 757.985 586.684C755.023 586.684 752.403 586.16 750.124 585.111C747.845 584.063 746.057 582.605 744.758 580.736C743.482 578.845 742.844 576.806 742.844 574.618H749.167C749.281 576.737 750.124 578.424 751.696 579.677C753.291 580.907 755.388 581.522 757.985 581.522C760.378 581.522 762.292 581.044 763.728 580.087C765.186 579.107 765.915 577.808 765.915 576.19Z" fill="black"/>
</g>
<defs>
<clipPath id="clip0_12_48">
<rect width="2679" height="594" fill="white"/>
</clipPath>
</defs>
</svg>
