<svg width="2884" height="800" viewBox="0 0 2884 800" fill="none" xmlns="http://www.w3.org/2000/svg">
<rect x="105.142" y="232.249" width="381.668" height="457.168" rx="45" transform="rotate(-0.0689607 105.142 232.249)" stroke="black" stroke-width="10"/>
<circle cx="240.002" cy="439" r="81" fill="black" stroke="#5BADAD" stroke-width="16"/>
<path d="M411.472 400.016V443.521C411.443 449.557 409.539 454.493 405.759 458.331C402.009 462.169 396.912 464.322 390.466 464.791L388.225 464.879C381.223 464.879 375.642 462.989 371.482 459.21C367.322 455.431 365.213 450.23 365.154 443.609V400.016H373.504V443.346C373.504 447.975 374.778 451.578 377.327 454.156C379.876 456.705 383.508 457.979 388.225 457.979C393.001 457.979 396.648 456.705 399.168 454.156C401.716 451.607 402.991 448.019 402.991 443.39V400.016H411.472ZM433.84 464H425.403V400.016H433.84V464Z" fill="black"/>
<path d="M166.471 144.016V187.521C166.442 193.557 164.537 198.493 160.758 202.331C157.008 206.169 151.91 208.322 145.465 208.791L143.224 208.879C136.222 208.879 130.641 206.989 126.481 203.21C122.32 199.431 120.211 194.23 120.152 187.609V144.016H128.502V187.346C128.502 191.975 129.776 195.578 132.325 198.156C134.874 200.705 138.507 201.979 143.224 201.979C147.999 201.979 151.647 200.705 154.166 198.156C156.715 195.607 157.989 192.019 157.989 187.39V144.016H166.471ZM188.839 208H180.401V144.016H188.839V208ZM235.685 208H227.247V144.016H235.685V208ZM277.565 195.388C277.565 193.19 276.73 191.491 275.06 190.29C273.419 189.06 270.533 188.005 266.402 187.126C262.301 186.247 259.034 185.192 256.603 183.962C254.2 182.731 252.413 181.267 251.241 179.567C250.099 177.868 249.527 175.847 249.527 173.503C249.527 169.606 251.168 166.311 254.449 163.615C257.76 160.92 261.979 159.572 267.106 159.572C272.496 159.572 276.861 160.964 280.201 163.747C283.57 166.53 285.255 170.09 285.255 174.426H277.081C277.081 172.199 276.129 170.28 274.225 168.669C272.35 167.058 269.977 166.252 267.106 166.252C264.147 166.252 261.832 166.896 260.162 168.186C258.492 169.475 257.657 171.159 257.657 173.239C257.657 175.202 258.434 176.682 259.986 177.678C261.539 178.674 264.337 179.626 268.38 180.534C272.452 181.442 275.748 182.526 278.268 183.786C280.787 185.046 282.648 186.569 283.849 188.356C285.079 190.114 285.694 192.268 285.694 194.816C285.694 199.064 283.995 202.478 280.597 205.056C277.198 207.604 272.789 208.879 267.369 208.879C263.561 208.879 260.192 208.205 257.262 206.857C254.332 205.51 252.032 203.635 250.362 201.232C248.722 198.801 247.901 196.179 247.901 193.366H256.031C256.178 196.091 257.262 198.259 259.283 199.87C261.334 201.452 264.029 202.243 267.369 202.243C270.445 202.243 272.906 201.628 274.752 200.397C276.627 199.138 277.565 197.468 277.565 195.388ZM294.132 183.786C294.132 179.128 295.04 174.938 296.857 171.218C298.702 167.497 301.251 164.626 304.503 162.604C307.784 160.583 311.52 159.572 315.709 159.572C322.184 159.572 327.413 161.813 331.398 166.296C335.411 170.778 337.418 176.74 337.418 184.182V184.753C337.418 189.382 336.525 193.542 334.737 197.233C332.98 200.896 330.445 203.752 327.135 205.803C323.854 207.854 320.074 208.879 315.797 208.879C309.352 208.879 304.122 206.638 300.109 202.155C296.124 197.673 294.132 191.74 294.132 184.357V183.786ZM302.306 184.753C302.306 190.026 303.522 194.26 305.953 197.453C308.414 200.646 311.695 202.243 315.797 202.243C319.928 202.243 323.209 200.632 325.641 197.409C328.072 194.157 329.288 189.616 329.288 183.786C329.288 178.571 328.043 174.353 325.553 171.13C323.092 167.878 319.811 166.252 315.709 166.252C311.695 166.252 308.458 167.849 305.997 171.042C303.536 174.235 302.306 178.806 302.306 184.753ZM356.446 208H348.317V140.5H356.446V208ZM398.854 208C398.385 207.062 398.004 205.393 397.711 202.99C393.932 206.916 389.42 208.879 384.176 208.879C379.488 208.879 375.636 207.561 372.618 204.924C369.63 202.258 368.136 198.889 368.136 194.816C368.136 189.865 370.011 186.027 373.761 183.303C377.54 180.549 382.843 179.172 389.669 179.172H397.579V175.437C397.579 172.595 396.73 170.339 395.03 168.669C393.331 166.97 390.826 166.12 387.516 166.12C384.615 166.12 382.184 166.853 380.221 168.317C378.258 169.782 377.276 171.555 377.276 173.635H369.103C369.103 171.262 369.938 168.977 371.608 166.779C373.307 164.553 375.592 162.795 378.463 161.506C381.363 160.217 384.542 159.572 387.999 159.572C393.478 159.572 397.77 160.949 400.875 163.703C403.981 166.428 405.592 170.192 405.709 174.997V196.882C405.709 201.247 406.266 204.719 407.379 207.297V208H398.854ZM385.362 201.804C387.911 201.804 390.328 201.145 392.613 199.826C394.899 198.508 396.554 196.794 397.579 194.685V184.929H391.207C381.246 184.929 376.266 187.844 376.266 193.674C376.266 196.223 377.115 198.215 378.815 199.65C380.514 201.086 382.696 201.804 385.362 201.804ZM429.484 148.938V160.451H438.36V166.735H429.484V196.223C429.484 198.127 429.879 199.562 430.67 200.529C431.461 201.467 432.809 201.936 434.713 201.936C435.651 201.936 436.94 201.76 438.58 201.408V208C436.442 208.586 434.361 208.879 432.34 208.879C428.707 208.879 425.968 207.78 424.122 205.583C422.276 203.386 421.354 200.266 421.354 196.223V166.735H412.696V160.451H421.354V148.938H429.484ZM467.628 208.879C461.183 208.879 455.939 206.77 451.896 202.551C447.853 198.303 445.831 192.634 445.831 185.544V184.05C445.831 179.333 446.725 175.129 448.512 171.438C450.328 167.717 452.848 164.816 456.07 162.736C459.322 160.627 462.838 159.572 466.617 159.572C472.799 159.572 477.604 161.608 481.031 165.681C484.459 169.753 486.173 175.583 486.173 183.171V186.555H453.961C454.078 191.242 455.441 195.036 458.048 197.937C460.685 200.808 464.025 202.243 468.068 202.243C470.939 202.243 473.37 201.657 475.362 200.485C477.355 199.313 479.098 197.761 480.592 195.827L485.558 199.694C481.573 205.817 475.597 208.879 467.628 208.879ZM466.617 166.252C463.336 166.252 460.582 167.453 458.356 169.855C456.129 172.229 454.752 175.568 454.225 179.875H478.043V179.26C477.809 175.129 476.695 171.936 474.703 169.68C472.711 167.395 470.016 166.252 466.617 166.252Z" fill="black"/>
<line x1="1122" y1="379.182" x2="1122" y2="479.182" stroke="black" stroke-width="18"/>
<line x1="1204.1" y1="336.976" x2="1117.5" y2="386.976" stroke="black" stroke-width="18"/>
<line x1="1281.78" y1="386.976" x2="1195.18" y2="336.976" stroke="black" stroke-width="18"/>
<line x1="1204.1" y1="520.976" x2="1117.5" y2="470.976" stroke="black" stroke-width="18"/>
<line x1="1200.35" y1="429.615" x2="1115.48" y2="380.615" stroke="black"/>
<path d="M1281.6 471.182L1195 521.182" stroke="black" stroke-width="18"/>
<path d="M1283.87 380.182L1199 429.182" stroke="black"/>
<line x1="1277" y1="379.182" x2="1277" y2="479.182" stroke="black" stroke-width="18"/>
<line x1="1199.5" y1="429.182" x2="1199.5" y2="527.182" stroke="black"/>
<path d="M1199.5 349.682L1268 389.182L1199.47 429.146L1131 389.182L1199.5 349.682Z" fill="#005593"/>
<path d="M1199.5 349.682L1268 389.182L1199.47 429.146L1131 389.182L1199.5 349.682Z" fill="#005593"/>
<path d="M1199.5 349.682L1268 389.182L1199.47 429.146L1131 389.182L1199.5 349.682Z" fill="#005593"/>
<path d="M1199 429.182L1268 389.182V468.682L1199.5 508.182L1199 429.182Z" fill="#4E84B7"/>
<path d="M1131 389.182L1199.5 429.182V508.182L1130.5 468.182L1131 389.182Z" fill="#54ACDD"/>
<path d="M1323.43 459V395.016H1344.34C1351.29 395.016 1356.5 396.451 1359.99 399.322C1363.5 402.193 1365.26 406.441 1365.26 412.066C1365.26 415.055 1364.41 417.706 1362.71 420.021C1361.01 422.306 1358.7 424.078 1355.77 425.338C1359.23 426.305 1361.95 428.15 1363.94 430.875C1365.97 433.57 1366.98 436.793 1366.98 440.543C1366.98 446.285 1365.12 450.797 1361.4 454.078C1357.67 457.359 1352.42 459 1345.62 459H1323.43ZM1331.86 429.073V452.101H1345.79C1349.72 452.101 1352.81 451.09 1355.07 449.068C1357.35 447.018 1358.5 444.205 1358.5 440.631C1358.5 432.926 1354.31 429.073 1345.93 429.073H1331.86ZM1331.86 422.306H1344.61C1348.3 422.306 1351.24 421.383 1353.44 419.537C1355.67 417.691 1356.78 415.187 1356.78 412.022C1356.78 408.507 1355.76 405.958 1353.71 404.376C1351.65 402.765 1348.53 401.959 1344.34 401.959H1331.86V422.306ZM1387.98 452.101H1418.3V459H1379.5V395.016H1387.98V452.101ZM1424.5 434.786C1424.5 430.128 1425.41 425.938 1427.23 422.218C1429.07 418.497 1431.62 415.626 1434.87 413.604C1438.15 411.583 1441.89 410.572 1446.08 410.572C1452.55 410.572 1457.78 412.813 1461.77 417.296C1465.78 421.778 1467.79 427.74 1467.79 435.182V435.753C1467.79 440.382 1466.89 444.542 1465.11 448.233C1463.35 451.896 1460.81 454.752 1457.5 456.803C1454.22 458.854 1450.44 459.879 1446.17 459.879C1439.72 459.879 1434.49 457.638 1430.48 453.155C1426.49 448.673 1424.5 442.74 1424.5 435.357V434.786ZM1432.67 435.753C1432.67 441.026 1433.89 445.26 1436.32 448.453C1438.78 451.646 1442.06 453.243 1446.17 453.243C1450.3 453.243 1453.58 451.632 1456.01 448.409C1458.44 445.157 1459.66 440.616 1459.66 434.786C1459.66 429.571 1458.41 425.353 1455.92 422.13C1453.46 418.878 1450.18 417.252 1446.08 417.252C1442.06 417.252 1438.83 418.849 1436.37 422.042C1433.91 425.235 1432.67 429.806 1432.67 435.753ZM1526.32 438.697C1525.53 445.465 1523.03 450.694 1518.81 454.386C1514.62 458.048 1509.04 459.879 1502.06 459.879C1494.51 459.879 1488.44 457.169 1483.87 451.749C1479.33 446.329 1477.06 439.078 1477.06 429.996V423.844C1477.06 417.896 1478.11 412.667 1480.22 408.155C1482.36 403.644 1485.38 400.187 1489.28 397.784C1493.17 395.353 1497.68 394.137 1502.81 394.137C1509.61 394.137 1515.06 396.041 1519.16 399.85C1523.26 403.629 1525.65 408.873 1526.32 415.582H1517.84C1517.11 410.484 1515.51 406.793 1513.05 404.508C1510.62 402.223 1507.21 401.08 1502.81 401.08C1497.42 401.08 1493.19 403.072 1490.11 407.057C1487.06 411.041 1485.54 416.71 1485.54 424.063V430.26C1485.54 437.203 1486.99 442.726 1489.89 446.827C1492.79 450.929 1496.85 452.979 1502.06 452.979C1506.75 452.979 1510.34 451.925 1512.83 449.815C1515.35 447.677 1517.02 443.971 1517.84 438.697H1526.32Z" fill="black"/>
<rect x="1058" y="197" width="1716" height="492" rx="49" stroke="black" stroke-width="10"/>
<rect x="2104" y="362" width="158" height="158" fill="black" stroke="#5BADAD" stroke-width="16"/>
<path d="M2330.89 441.116H2315.86V467H2307.38V403.016H2328.56C2335.77 403.016 2341.31 404.656 2345.18 407.938C2349.07 411.219 2351.02 415.994 2351.02 422.264C2351.02 426.248 2349.94 429.72 2347.77 432.679C2345.63 435.638 2342.64 437.85 2338.8 439.314L2353.83 466.473V467H2344.78L2330.89 441.116ZM2315.86 434.217H2328.83C2333.02 434.217 2336.34 433.133 2338.8 430.965C2341.29 428.797 2342.54 425.896 2342.54 422.264C2342.54 418.309 2341.35 415.276 2338.98 413.167C2336.64 411.058 2333.24 409.988 2328.78 409.959H2315.86V434.217ZM2381.34 467.879C2374.9 467.879 2369.65 465.77 2365.61 461.551C2361.57 457.303 2359.55 451.634 2359.55 444.544V443.05C2359.55 438.333 2360.44 434.129 2362.23 430.438C2364.04 426.717 2366.56 423.816 2369.79 421.736C2373.04 419.627 2376.55 418.572 2380.33 418.572C2386.51 418.572 2391.32 420.608 2394.75 424.681C2398.17 428.753 2399.89 434.583 2399.89 442.171V445.555H2367.68C2367.79 450.242 2369.16 454.036 2371.76 456.937C2374.4 459.808 2377.74 461.243 2381.78 461.243C2384.65 461.243 2387.08 460.657 2389.08 459.485C2391.07 458.313 2392.81 456.761 2394.31 454.827L2399.27 458.694C2395.29 464.817 2389.31 467.879 2381.34 467.879ZM2380.33 425.252C2377.05 425.252 2374.3 426.453 2372.07 428.855C2369.84 431.229 2368.47 434.568 2367.94 438.875H2391.76V438.26C2391.52 434.129 2390.41 430.936 2388.42 428.68C2386.43 426.395 2383.73 425.252 2380.33 425.252ZM2449.5 443.753C2449.5 450.989 2447.85 456.819 2444.54 461.243C2441.23 465.667 2436.74 467.879 2431.09 467.879C2425.32 467.879 2420.78 466.048 2417.47 462.386V485.281H2409.34V419.451H2416.76L2417.16 424.725C2420.47 420.623 2425.07 418.572 2430.96 418.572C2436.67 418.572 2441.18 420.726 2444.49 425.032C2447.83 429.339 2449.5 435.33 2449.5 443.006V443.753ZM2441.37 442.83C2441.37 437.469 2440.23 433.235 2437.94 430.13C2435.66 427.024 2432.52 425.472 2428.54 425.472C2423.62 425.472 2419.93 427.654 2417.47 432.02V454.739C2419.9 459.075 2423.62 461.243 2428.63 461.243C2432.52 461.243 2435.62 459.705 2437.9 456.629C2440.21 453.523 2441.37 448.924 2441.37 442.83ZM2457.72 442.786C2457.72 438.128 2458.63 433.938 2460.44 430.218C2462.29 426.497 2464.84 423.626 2468.09 421.604C2471.37 419.583 2475.11 418.572 2479.3 418.572C2485.77 418.572 2491 420.813 2494.99 425.296C2499 429.778 2501.01 435.74 2501.01 443.182V443.753C2501.01 448.382 2500.11 452.542 2498.33 456.233C2496.57 459.896 2494.03 462.752 2490.72 464.803C2487.44 466.854 2483.66 467.879 2479.38 467.879C2472.94 467.879 2467.71 465.638 2463.7 461.155C2459.71 456.673 2457.72 450.74 2457.72 443.357V442.786ZM2465.89 443.753C2465.89 449.026 2467.11 453.26 2469.54 456.453C2472 459.646 2475.28 461.243 2479.38 461.243C2483.52 461.243 2486.8 459.632 2489.23 456.409C2491.66 453.157 2492.88 448.616 2492.88 442.786C2492.88 437.571 2491.63 433.353 2489.14 430.13C2486.68 426.878 2483.4 425.252 2479.3 425.252C2475.28 425.252 2472.05 426.849 2469.58 430.042C2467.12 433.235 2465.89 437.806 2465.89 443.753ZM2538.89 454.388C2538.89 452.19 2538.05 450.491 2536.38 449.29C2534.74 448.06 2531.86 447.005 2527.72 446.126C2523.62 445.247 2520.36 444.192 2517.92 442.962C2515.52 441.731 2513.74 440.267 2512.56 438.567C2511.42 436.868 2510.85 434.847 2510.85 432.503C2510.85 428.606 2512.49 425.311 2515.77 422.615C2519.08 419.92 2523.3 418.572 2528.43 418.572C2533.82 418.572 2538.18 419.964 2541.52 422.747C2544.89 425.53 2546.58 429.09 2546.58 433.426H2538.4C2538.4 431.199 2537.45 429.28 2535.55 427.669C2533.67 426.058 2531.3 425.252 2528.43 425.252C2525.47 425.252 2523.15 425.896 2521.48 427.186C2519.81 428.475 2518.98 430.159 2518.98 432.239C2518.98 434.202 2519.76 435.682 2521.31 436.678C2522.86 437.674 2525.66 438.626 2529.7 439.534C2533.77 440.442 2537.07 441.526 2539.59 442.786C2542.11 444.046 2543.97 445.569 2545.17 447.356C2546.4 449.114 2547.02 451.268 2547.02 453.816C2547.02 458.064 2545.32 461.478 2541.92 464.056C2538.52 466.604 2534.11 467.879 2528.69 467.879C2524.88 467.879 2521.51 467.205 2518.58 465.857C2515.65 464.51 2513.35 462.635 2511.68 460.232C2510.04 457.801 2509.22 455.179 2509.22 452.366H2517.35C2517.5 455.091 2518.58 457.259 2520.61 458.87C2522.66 460.452 2525.35 461.243 2528.69 461.243C2531.77 461.243 2534.23 460.628 2536.07 459.397C2537.95 458.138 2538.89 456.468 2538.89 454.388ZM2566.44 467H2558.31V419.451H2566.44V467ZM2557.65 406.839C2557.65 405.521 2558.05 404.407 2558.84 403.499C2559.66 402.591 2560.86 402.137 2562.44 402.137C2564.02 402.137 2565.22 402.591 2566.04 403.499C2566.87 404.407 2567.28 405.521 2567.28 406.839C2567.28 408.157 2566.87 409.256 2566.04 410.135C2565.22 411.014 2564.02 411.453 2562.44 411.453C2560.86 411.453 2559.66 411.014 2558.84 410.135C2558.05 409.256 2557.65 408.157 2557.65 406.839ZM2590.52 407.938V419.451H2599.4V425.735H2590.52V455.223C2590.52 457.127 2590.92 458.562 2591.71 459.529C2592.5 460.467 2593.85 460.936 2595.75 460.936C2596.69 460.936 2597.98 460.76 2599.62 460.408V467C2597.48 467.586 2595.4 467.879 2593.38 467.879C2589.75 467.879 2587.01 466.78 2585.16 464.583C2583.32 462.386 2582.39 459.266 2582.39 455.223V425.735H2573.74V419.451H2582.39V407.938H2590.52ZM2605.9 442.786C2605.9 438.128 2606.81 433.938 2608.63 430.218C2610.47 426.497 2613.02 423.626 2616.27 421.604C2619.56 419.583 2623.29 418.572 2627.48 418.572C2633.96 418.572 2639.18 420.813 2643.17 425.296C2647.18 429.778 2649.19 435.74 2649.19 443.182V443.753C2649.19 448.382 2648.3 452.542 2646.51 456.233C2644.75 459.896 2642.22 462.752 2638.91 464.803C2635.62 466.854 2631.85 467.879 2627.57 467.879C2621.12 467.879 2615.89 465.638 2611.88 461.155C2607.9 456.673 2605.9 450.74 2605.9 443.357V442.786ZM2614.08 443.753C2614.08 449.026 2615.29 453.26 2617.72 456.453C2620.19 459.646 2623.47 461.243 2627.57 461.243C2631.7 461.243 2634.98 459.632 2637.41 456.409C2639.84 453.157 2641.06 448.616 2641.06 442.786C2641.06 437.571 2639.81 433.353 2637.32 430.13C2634.86 426.878 2631.58 425.252 2627.48 425.252C2623.47 425.252 2620.23 426.849 2617.77 430.042C2615.31 433.235 2614.08 437.806 2614.08 443.753ZM2682.37 426.746C2681.14 426.541 2679.8 426.438 2678.37 426.438C2673.04 426.438 2669.42 428.709 2667.51 433.25V467H2659.38V419.451H2667.29L2667.43 424.944C2670.09 420.696 2673.87 418.572 2678.76 418.572C2680.35 418.572 2681.55 418.777 2682.37 419.188V426.746ZM2706.23 455.091L2717.3 419.451H2726.01L2706.89 474.339C2703.93 482.249 2699.23 486.204 2692.78 486.204L2691.25 486.072L2688.21 485.501V478.909L2690.41 479.085C2693.16 479.085 2695.3 478.528 2696.83 477.415C2698.38 476.302 2699.65 474.266 2700.65 471.307L2702.45 466.473L2685.49 419.451H2694.37L2706.23 455.091Z" fill="black"/>
<path d="M2266.43 183V119.016H2287.34C2294.29 119.016 2299.5 120.451 2302.99 123.322C2306.5 126.193 2308.26 130.441 2308.26 136.066C2308.26 139.055 2307.41 141.706 2305.71 144.021C2304.01 146.306 2301.7 148.078 2298.77 149.338C2302.23 150.305 2304.95 152.15 2306.94 154.875C2308.97 157.57 2309.98 160.793 2309.98 164.543C2309.98 170.285 2308.12 174.797 2304.4 178.078C2300.67 181.359 2295.42 183 2288.62 183H2266.43ZM2274.86 153.073V176.101H2288.79C2292.72 176.101 2295.81 175.09 2298.07 173.068C2300.35 171.018 2301.5 168.205 2301.5 164.631C2301.5 156.926 2297.31 153.073 2288.93 153.073H2274.86ZM2274.86 146.306H2287.61C2291.3 146.306 2294.24 145.383 2296.44 143.537C2298.67 141.691 2299.78 139.187 2299.78 136.022C2299.78 132.507 2298.76 129.958 2296.71 128.376C2294.65 126.765 2291.53 125.959 2287.34 125.959H2274.86V146.306ZM2330.98 176.101H2361.3V183H2322.5V119.016H2330.98V176.101ZM2367.5 158.786C2367.5 154.128 2368.41 149.938 2370.23 146.218C2372.07 142.497 2374.62 139.626 2377.87 137.604C2381.15 135.583 2384.89 134.572 2389.08 134.572C2395.55 134.572 2400.78 136.813 2404.77 141.296C2408.78 145.778 2410.79 151.74 2410.79 159.182V159.753C2410.79 164.382 2409.89 168.542 2408.11 172.233C2406.35 175.896 2403.81 178.752 2400.5 180.803C2397.22 182.854 2393.44 183.879 2389.17 183.879C2382.72 183.879 2377.49 181.638 2373.48 177.155C2369.49 172.673 2367.5 166.74 2367.5 159.357V158.786ZM2375.67 159.753C2375.67 165.026 2376.89 169.26 2379.32 172.453C2381.78 175.646 2385.06 177.243 2389.17 177.243C2393.3 177.243 2396.58 175.632 2399.01 172.409C2401.44 169.157 2402.66 164.616 2402.66 158.786C2402.66 153.571 2401.41 149.353 2398.92 146.13C2396.46 142.878 2393.18 141.252 2389.08 141.252C2385.06 141.252 2381.83 142.849 2379.37 146.042C2376.91 149.235 2375.67 153.806 2375.67 159.753ZM2469.32 162.697C2468.53 169.465 2466.03 174.694 2461.81 178.386C2457.62 182.048 2452.04 183.879 2445.06 183.879C2437.51 183.879 2431.44 181.169 2426.87 175.749C2422.33 170.329 2420.06 163.078 2420.06 153.996V147.844C2420.06 141.896 2421.11 136.667 2423.22 132.155C2425.36 127.644 2428.38 124.187 2432.28 121.784C2436.17 119.353 2440.68 118.137 2445.81 118.137C2452.61 118.137 2458.06 120.041 2462.16 123.85C2466.26 127.629 2468.65 132.873 2469.32 139.582H2460.84C2460.11 134.484 2458.51 130.793 2456.05 128.508C2453.62 126.223 2450.21 125.08 2445.81 125.08C2440.42 125.08 2436.19 127.072 2433.11 131.057C2430.06 135.041 2428.54 140.71 2428.54 148.063V154.26C2428.54 161.203 2429.99 166.726 2432.89 170.827C2435.79 174.929 2439.85 176.979 2445.06 176.979C2449.75 176.979 2453.34 175.925 2455.83 173.815C2458.35 171.677 2460.02 167.971 2460.84 162.697H2469.32ZM2512.26 183H2503.82V119.016H2512.26V183ZM2554.14 170.388C2554.14 168.19 2553.3 166.491 2551.63 165.29C2549.99 164.06 2547.11 163.005 2542.97 162.126C2538.87 161.247 2535.61 160.192 2533.17 158.962C2530.77 157.731 2528.99 156.267 2527.81 154.567C2526.67 152.868 2526.1 150.847 2526.1 148.503C2526.1 144.606 2527.74 141.311 2531.02 138.615C2534.33 135.92 2538.55 134.572 2543.68 134.572C2549.07 134.572 2553.43 135.964 2556.77 138.747C2560.14 141.53 2561.83 145.09 2561.83 149.426H2553.65C2553.65 147.199 2552.7 145.28 2550.8 143.669C2548.92 142.058 2546.55 141.252 2543.68 141.252C2540.72 141.252 2538.4 141.896 2536.73 143.186C2535.06 144.475 2534.23 146.159 2534.23 148.239C2534.23 150.202 2535.01 151.682 2536.56 152.678C2538.11 153.674 2540.91 154.626 2544.95 155.534C2549.02 156.442 2552.32 157.526 2554.84 158.786C2557.36 160.046 2559.22 161.569 2560.42 163.356C2561.65 165.114 2562.27 167.268 2562.27 169.816C2562.27 174.064 2560.57 177.478 2557.17 180.056C2553.77 182.604 2549.36 183.879 2543.94 183.879C2540.13 183.879 2536.76 183.205 2533.83 181.857C2530.9 180.51 2528.6 178.635 2526.93 176.232C2525.29 173.801 2524.47 171.179 2524.47 168.366H2532.6C2532.75 171.091 2533.83 173.259 2535.86 174.87C2537.91 176.452 2540.6 177.243 2543.94 177.243C2547.02 177.243 2549.48 176.628 2551.32 175.397C2553.2 174.138 2554.14 172.468 2554.14 170.388ZM2570.7 158.786C2570.7 154.128 2571.61 149.938 2573.43 146.218C2575.27 142.497 2577.82 139.626 2581.08 137.604C2584.36 135.583 2588.09 134.572 2592.28 134.572C2598.76 134.572 2603.99 136.813 2607.97 141.296C2611.98 145.778 2613.99 151.74 2613.99 159.182V159.753C2613.99 164.382 2613.1 168.542 2611.31 172.233C2609.55 175.896 2607.02 178.752 2603.71 180.803C2600.43 182.854 2596.65 183.879 2592.37 183.879C2585.92 183.879 2580.69 181.638 2576.68 177.155C2572.7 172.673 2570.7 166.74 2570.7 159.357V158.786ZM2578.88 159.753C2578.88 165.026 2580.09 169.26 2582.53 172.453C2584.99 175.646 2588.27 177.243 2592.37 177.243C2596.5 177.243 2599.78 175.632 2602.21 172.409C2604.64 169.157 2605.86 164.616 2605.86 158.786C2605.86 153.571 2604.62 149.353 2602.12 146.13C2599.66 142.878 2596.38 141.252 2592.28 141.252C2588.27 141.252 2585.03 142.849 2582.57 146.042C2580.11 149.235 2578.88 153.806 2578.88 159.753ZM2633.02 183H2624.89V115.5H2633.02V183ZM2675.43 183C2674.96 182.062 2674.58 180.393 2674.28 177.99C2670.5 181.916 2665.99 183.879 2660.75 183.879C2656.06 183.879 2652.21 182.561 2649.19 179.924C2646.2 177.258 2644.71 173.889 2644.71 169.816C2644.71 164.865 2646.58 161.027 2650.33 158.303C2654.11 155.549 2659.42 154.172 2666.24 154.172H2674.15V150.437C2674.15 147.595 2673.3 145.339 2671.6 143.669C2669.9 141.97 2667.4 141.12 2664.09 141.12C2661.19 141.12 2658.76 141.853 2656.79 143.317C2654.83 144.782 2653.85 146.555 2653.85 148.635H2645.67C2645.67 146.262 2646.51 143.977 2648.18 141.779C2649.88 139.553 2652.16 137.795 2655.04 136.506C2657.94 135.217 2661.11 134.572 2664.57 134.572C2670.05 134.572 2674.34 135.949 2677.45 138.703C2680.55 141.428 2682.16 145.192 2682.28 149.997V171.882C2682.28 176.247 2682.84 179.719 2683.95 182.297V183H2675.43ZM2661.93 176.804C2664.48 176.804 2666.9 176.145 2669.19 174.826C2671.47 173.508 2673.13 171.794 2674.15 169.685V159.929H2667.78C2657.82 159.929 2652.84 162.844 2652.84 168.674C2652.84 171.223 2653.69 173.215 2655.39 174.65C2657.09 176.086 2659.27 176.804 2661.93 176.804ZM2706.06 123.938V135.451H2714.93V141.735H2706.06V171.223C2706.06 173.127 2706.45 174.562 2707.24 175.529C2708.03 176.467 2709.38 176.936 2711.29 176.936C2712.22 176.936 2713.51 176.76 2715.15 176.408V183C2713.01 183.586 2710.93 183.879 2708.91 183.879C2705.28 183.879 2702.54 182.78 2700.69 180.583C2698.85 178.386 2697.93 175.266 2697.93 171.223V141.735H2689.27V135.451H2697.93V123.938H2706.06ZM2744.2 183.879C2737.75 183.879 2732.51 181.77 2728.47 177.551C2724.42 173.303 2722.4 167.634 2722.4 160.544V159.05C2722.4 154.333 2723.3 150.129 2725.08 146.438C2726.9 142.717 2729.42 139.816 2732.64 137.736C2735.89 135.627 2739.41 134.572 2743.19 134.572C2749.37 134.572 2754.18 136.608 2757.6 140.681C2761.03 144.753 2762.75 150.583 2762.75 158.171V161.555H2730.53C2730.65 166.242 2732.01 170.036 2734.62 172.937C2737.26 175.808 2740.6 177.243 2744.64 177.243C2747.51 177.243 2749.94 176.657 2751.93 175.485C2753.93 174.313 2755.67 172.761 2757.16 170.827L2762.13 174.694C2758.15 180.817 2752.17 183.879 2744.2 183.879ZM2743.19 141.252C2739.91 141.252 2737.15 142.453 2734.93 144.855C2732.7 147.229 2731.32 150.568 2730.8 154.875H2754.62V154.26C2754.38 150.129 2753.27 146.936 2751.28 144.68C2749.28 142.395 2746.59 141.252 2743.19 141.252Z" fill="black"/>
<path d="M1586 377C1697.49 315.077 1916.09 313.594 2039 377" stroke="black" stroke-width="8"/>
<line x1="2041.9" y1="378.325" x2="2025.45" y2="346.853" stroke="black" stroke-width="8"/>
<line x1="2006.68" y1="379.877" x2="2042.07" y2="377.013" stroke="black" stroke-width="8"/>
<circle cx="2043" cy="378" r="3" fill="black"/>
<path d="M1709.14 278.868H1697.45V299H1690.85V249.234H1707.33C1712.93 249.234 1717.24 250.51 1720.25 253.062C1723.28 255.615 1724.79 259.329 1724.79 264.205C1724.79 267.304 1723.95 270.004 1722.27 272.306C1720.6 274.607 1718.28 276.327 1715.29 277.467L1726.98 298.59V299H1719.94L1709.14 278.868ZM1697.45 273.502H1707.53C1710.79 273.502 1713.38 272.659 1715.29 270.973C1717.23 269.286 1718.2 267.031 1718.2 264.205C1718.2 261.129 1717.28 258.771 1715.43 257.13C1713.61 255.489 1710.96 254.658 1707.5 254.635H1697.45V273.502ZM1748.38 299.684C1743.37 299.684 1739.29 298.043 1736.14 294.762C1733 291.458 1731.43 287.049 1731.43 281.534V280.372C1731.43 276.703 1732.12 273.434 1733.51 270.562C1734.92 267.669 1736.88 265.413 1739.39 263.795C1741.92 262.154 1744.65 261.334 1747.59 261.334C1752.4 261.334 1756.14 262.918 1758.8 266.085C1761.47 269.252 1762.8 273.787 1762.8 279.688V282.32H1737.75C1737.84 285.966 1738.9 288.917 1740.93 291.173C1742.98 293.406 1745.58 294.522 1748.72 294.522C1750.95 294.522 1752.85 294.067 1754.39 293.155C1755.94 292.244 1757.3 291.036 1758.46 289.532L1762.32 292.54C1759.23 297.302 1754.58 299.684 1748.38 299.684ZM1747.59 266.529C1745.04 266.529 1742.9 267.464 1741.17 269.332C1739.44 271.178 1738.36 273.775 1737.95 277.125H1756.48V276.646C1756.3 273.434 1755.43 270.95 1753.88 269.195C1752.33 267.418 1750.24 266.529 1747.59 266.529ZM1768.61 280.201C1768.61 274.391 1769.95 269.799 1772.61 266.427C1775.28 263.032 1778.86 261.334 1783.34 261.334C1787.72 261.334 1791.17 262.804 1793.7 265.743L1793.97 262.018H1799.79V313.219H1793.46V295.582C1790.91 298.316 1787.51 299.684 1783.28 299.684C1778.81 299.684 1775.24 297.952 1772.58 294.488C1769.93 291.002 1768.61 286.388 1768.61 280.646V280.201ZM1774.94 280.919C1774.94 285.157 1775.83 288.484 1777.6 290.899C1779.4 293.315 1781.82 294.522 1784.85 294.522C1788.61 294.522 1791.48 292.859 1793.46 289.532V271.417C1791.46 268.159 1788.61 266.529 1784.92 266.529C1781.86 266.529 1779.44 267.748 1777.64 270.187C1775.84 272.602 1774.94 276.179 1774.94 280.919ZM1832.77 295.343C1830.31 298.237 1826.7 299.684 1821.93 299.684C1817.99 299.684 1814.98 298.544 1812.91 296.266C1810.86 293.964 1809.82 290.569 1809.8 286.08V262.018H1816.12V285.909C1816.12 291.515 1818.4 294.317 1822.96 294.317C1827.79 294.317 1831 292.517 1832.6 288.917V262.018H1838.92V299H1832.91L1832.77 295.343ZM1863.91 299.684C1858.89 299.684 1854.81 298.043 1851.67 294.762C1848.53 291.458 1846.95 287.049 1846.95 281.534V280.372C1846.95 276.703 1847.65 273.434 1849.04 270.562C1850.45 267.669 1852.41 265.413 1854.92 263.795C1857.45 262.154 1860.18 261.334 1863.12 261.334C1867.93 261.334 1871.67 262.918 1874.33 266.085C1877 269.252 1878.33 273.787 1878.33 279.688V282.32H1853.28C1853.37 285.966 1854.43 288.917 1856.46 291.173C1858.51 293.406 1861.1 294.522 1864.25 294.522C1866.48 294.522 1868.37 294.067 1869.92 293.155C1871.47 292.244 1872.83 291.036 1873.99 289.532L1877.85 292.54C1874.75 297.302 1870.1 299.684 1863.91 299.684ZM1863.12 266.529C1860.57 266.529 1858.43 267.464 1856.69 269.332C1854.96 271.178 1853.89 273.775 1853.48 277.125H1872.01V276.646C1871.82 273.434 1870.96 270.95 1869.41 269.195C1867.86 267.418 1865.76 266.529 1863.12 266.529ZM1907.21 289.19C1907.21 287.481 1906.56 286.16 1905.26 285.226C1903.99 284.269 1901.74 283.448 1898.53 282.765C1895.34 282.081 1892.8 281.261 1890.91 280.304C1889.04 279.347 1887.65 278.207 1886.74 276.886C1885.85 275.564 1885.41 273.992 1885.41 272.169C1885.41 269.138 1886.68 266.575 1889.23 264.479C1891.81 262.382 1895.09 261.334 1899.08 261.334C1903.27 261.334 1906.67 262.416 1909.26 264.581C1911.88 266.746 1913.19 269.514 1913.19 272.887H1906.84C1906.84 271.155 1906.1 269.662 1904.61 268.409C1903.16 267.156 1901.31 266.529 1899.08 266.529C1896.78 266.529 1894.98 267.031 1893.68 268.033C1892.38 269.036 1891.73 270.346 1891.73 271.964C1891.73 273.491 1892.33 274.641 1893.54 275.416C1894.75 276.191 1896.92 276.931 1900.07 277.638C1903.24 278.344 1905.8 279.187 1907.76 280.167C1909.72 281.147 1911.17 282.332 1912.1 283.722C1913.06 285.089 1913.54 286.764 1913.54 288.746C1913.54 292.05 1912.21 294.705 1909.57 296.71C1906.93 298.692 1903.5 299.684 1899.28 299.684C1896.32 299.684 1893.7 299.16 1891.42 298.111C1889.14 297.063 1887.35 295.605 1886.05 293.736C1884.78 291.845 1884.14 289.806 1884.14 287.618H1890.46C1890.58 289.737 1891.42 291.424 1892.99 292.677C1894.59 293.907 1896.68 294.522 1899.28 294.522C1901.67 294.522 1903.59 294.044 1905.02 293.087C1906.48 292.107 1907.21 290.808 1907.21 289.19ZM1930.35 253.062V262.018H1937.26V266.905H1930.35V289.84C1930.35 291.321 1930.66 292.438 1931.27 293.189C1931.89 293.919 1932.94 294.283 1934.42 294.283C1935.15 294.283 1936.15 294.146 1937.43 293.873V299C1935.76 299.456 1934.15 299.684 1932.57 299.684C1929.75 299.684 1927.62 298.829 1926.18 297.12C1924.75 295.411 1924.03 292.984 1924.03 289.84V266.905H1917.29V262.018H1924.03V253.062H1930.35Z" fill="black"/>
<path d="M2040 516.864C1928.51 578.787 1709.91 580.27 1587 516.864" stroke="black" stroke-width="8"/>
<line x1="1584.1" y1="515.538" x2="1600.55" y2="547.011" stroke="black" stroke-width="8"/>
<line x1="1619.32" y1="513.987" x2="1583.93" y2="516.851" stroke="black" stroke-width="8"/>
<circle cx="1583" cy="515.864" r="3" transform="rotate(-180 1583 515.864)" fill="black"/>
<path d="M1683.82 635.868H1672.13V656H1665.54V606.234H1682.01C1687.62 606.234 1691.92 607.51 1694.93 610.062C1697.96 612.615 1699.48 616.329 1699.48 621.205C1699.48 624.304 1698.63 627.004 1696.95 629.306C1695.28 631.607 1692.96 633.327 1689.97 634.467L1701.66 655.59V656H1694.62L1683.82 635.868ZM1672.13 630.502H1682.22C1685.47 630.502 1688.06 629.659 1689.97 627.973C1691.91 626.286 1692.88 624.031 1692.88 621.205C1692.88 618.129 1691.96 615.771 1690.11 614.13C1688.29 612.489 1685.65 611.658 1682.18 611.635H1672.13V630.502ZM1723.06 656.684C1718.05 656.684 1713.97 655.043 1710.82 651.762C1707.68 648.458 1706.11 644.049 1706.11 638.534V637.372C1706.11 633.703 1706.8 630.434 1708.19 627.562C1709.61 624.669 1711.56 622.413 1714.07 620.795C1716.6 619.154 1719.33 618.334 1722.27 618.334C1727.08 618.334 1730.82 619.918 1733.49 623.085C1736.15 626.252 1737.48 630.787 1737.48 636.688V639.32H1712.43C1712.52 642.966 1713.58 645.917 1715.61 648.173C1717.66 650.406 1720.26 651.522 1723.4 651.522C1725.64 651.522 1727.53 651.067 1729.08 650.155C1730.63 649.244 1731.98 648.036 1733.14 646.532L1737.01 649.54C1733.91 654.302 1729.26 656.684 1723.06 656.684ZM1722.27 623.529C1719.72 623.529 1717.58 624.464 1715.85 626.332C1714.12 628.178 1713.05 630.775 1712.64 634.125H1731.16V633.646C1730.98 630.434 1730.11 627.95 1728.56 626.195C1727.01 624.418 1724.92 623.529 1722.27 623.529ZM1766.37 646.19C1766.37 644.481 1765.72 643.16 1764.42 642.226C1763.14 641.269 1760.9 640.448 1757.68 639.765C1754.49 639.081 1751.95 638.261 1750.06 637.304C1748.19 636.347 1746.8 635.207 1745.89 633.886C1745 632.564 1744.56 630.992 1744.56 629.169C1744.56 626.138 1745.84 623.575 1748.39 621.479C1750.96 619.382 1754.24 618.334 1758.23 618.334C1762.42 618.334 1765.82 619.416 1768.42 621.581C1771.04 623.746 1772.35 626.514 1772.35 629.887H1765.99C1765.99 628.155 1765.25 626.662 1763.77 625.409C1762.31 624.156 1760.46 623.529 1758.23 623.529C1755.93 623.529 1754.13 624.031 1752.83 625.033C1751.53 626.036 1750.88 627.346 1750.88 628.964C1750.88 630.491 1751.49 631.641 1752.69 632.416C1753.9 633.191 1756.08 633.931 1759.22 634.638C1762.39 635.344 1764.95 636.187 1766.91 637.167C1768.87 638.147 1770.32 639.332 1771.25 640.722C1772.21 642.089 1772.69 643.764 1772.69 645.746C1772.69 649.05 1771.37 651.705 1768.72 653.71C1766.08 655.692 1762.65 656.684 1758.44 656.684C1755.47 656.684 1752.85 656.16 1750.58 655.111C1748.3 654.063 1746.51 652.605 1745.21 650.736C1743.93 648.845 1743.29 646.806 1743.29 644.618H1749.62C1749.73 646.737 1750.58 648.424 1752.15 649.677C1753.74 650.907 1755.84 651.522 1758.44 651.522C1760.83 651.522 1762.74 651.044 1764.18 650.087C1765.64 649.107 1766.37 647.808 1766.37 646.19ZM1812.17 637.919C1812.17 643.547 1810.88 648.082 1808.3 651.522C1805.73 654.963 1802.24 656.684 1797.85 656.684C1793.36 656.684 1789.82 655.259 1787.25 652.411V670.219H1780.93V619.018H1786.7L1787.01 623.119C1789.59 619.929 1793.16 618.334 1797.74 618.334C1802.19 618.334 1805.7 620.009 1808.27 623.358C1810.87 626.708 1812.17 631.368 1812.17 637.338V637.919ZM1805.84 637.201C1805.84 633.031 1804.96 629.739 1803.18 627.323C1801.4 624.908 1798.96 623.7 1795.86 623.7C1792.04 623.7 1789.16 625.398 1787.25 628.793V646.464C1789.14 649.836 1792.04 651.522 1795.93 651.522C1798.96 651.522 1801.37 650.326 1803.14 647.934C1804.94 645.518 1805.84 641.941 1805.84 637.201ZM1818.56 637.167C1818.56 633.544 1819.26 630.285 1820.68 627.392C1822.11 624.498 1824.1 622.265 1826.62 620.692C1829.18 619.12 1832.08 618.334 1835.34 618.334C1840.38 618.334 1844.44 620.077 1847.54 623.563C1850.66 627.05 1852.23 631.687 1852.23 637.475V637.919C1852.23 641.519 1851.53 644.755 1850.14 647.626C1848.77 650.474 1846.8 652.696 1844.23 654.291C1841.68 655.886 1838.74 656.684 1835.41 656.684C1830.4 656.684 1826.33 654.94 1823.21 651.454C1820.11 647.968 1818.56 643.354 1818.56 637.611V637.167ZM1824.92 637.919C1824.92 642.021 1825.86 645.313 1827.75 647.797C1829.67 650.281 1832.22 651.522 1835.41 651.522C1838.62 651.522 1841.17 650.269 1843.07 647.763C1844.96 645.233 1845.9 641.701 1845.9 637.167C1845.9 633.111 1844.93 629.83 1843 627.323C1841.08 624.794 1838.53 623.529 1835.34 623.529C1832.22 623.529 1829.7 624.771 1827.79 627.255C1825.87 629.739 1824.92 633.293 1824.92 637.919ZM1866.14 619.018L1866.34 623.666C1869.17 620.111 1872.86 618.334 1877.42 618.334C1885.23 618.334 1889.17 622.743 1889.24 631.562V656H1882.92V631.527C1882.9 628.861 1882.28 626.89 1881.07 625.614C1879.89 624.338 1878.03 623.7 1875.5 623.7C1873.45 623.7 1871.65 624.247 1870.1 625.341C1868.55 626.435 1867.34 627.87 1866.48 629.647V656H1860.16V619.018H1866.14ZM1920.31 646.19C1920.31 644.481 1919.66 643.16 1918.36 642.226C1917.09 641.269 1914.84 640.448 1911.63 639.765C1908.44 639.081 1905.9 638.261 1904.01 637.304C1902.14 636.347 1900.75 635.207 1899.84 633.886C1898.95 632.564 1898.5 630.992 1898.5 629.169C1898.5 626.138 1899.78 623.575 1902.33 621.479C1904.91 619.382 1908.19 618.334 1912.18 618.334C1916.37 618.334 1919.76 619.416 1922.36 621.581C1924.98 623.746 1926.29 626.514 1926.29 629.887H1919.94C1919.94 628.155 1919.19 626.662 1917.71 625.409C1916.26 624.156 1914.41 623.529 1912.18 623.529C1909.88 623.529 1908.08 624.031 1906.78 625.033C1905.48 626.036 1904.83 627.346 1904.83 628.964C1904.83 630.491 1905.43 631.641 1906.64 632.416C1907.85 633.191 1910.02 633.931 1913.17 634.638C1916.34 635.344 1918.9 636.187 1920.86 637.167C1922.82 638.147 1924.26 639.332 1925.2 640.722C1926.16 642.089 1926.63 643.764 1926.63 645.746C1926.63 649.05 1925.31 651.705 1922.67 653.71C1920.03 655.692 1916.6 656.684 1912.38 656.684C1909.42 656.684 1906.8 656.16 1904.52 655.111C1902.24 654.063 1900.45 652.605 1899.15 650.736C1897.88 648.845 1897.24 646.806 1897.24 644.618H1903.56C1903.68 646.737 1904.52 648.424 1906.09 649.677C1907.69 650.907 1909.78 651.522 1912.38 651.522C1914.77 651.522 1916.69 651.044 1918.12 650.087C1919.58 649.107 1920.31 647.808 1920.31 646.19ZM1950.22 656.684C1945.21 656.684 1941.13 655.043 1937.98 651.762C1934.84 648.458 1933.27 644.049 1933.27 638.534V637.372C1933.27 633.703 1933.96 630.434 1935.35 627.562C1936.76 624.669 1938.72 622.413 1941.23 620.795C1943.76 619.154 1946.49 618.334 1949.43 618.334C1954.24 618.334 1957.98 619.918 1960.64 623.085C1963.31 626.252 1964.64 630.787 1964.64 636.688V639.32H1939.59C1939.68 642.966 1940.74 645.917 1942.77 648.173C1944.82 650.406 1947.42 651.522 1950.56 651.522C1952.79 651.522 1954.68 651.067 1956.23 650.155C1957.78 649.244 1959.14 648.036 1960.3 646.532L1964.16 649.54C1961.07 654.302 1956.42 656.684 1950.22 656.684ZM1949.43 623.529C1946.88 623.529 1944.74 624.464 1943.01 626.332C1941.28 628.178 1940.2 630.775 1939.79 634.125H1958.32V633.646C1958.14 630.434 1957.27 627.95 1955.72 626.195C1954.17 624.418 1952.08 623.529 1949.43 623.529Z" fill="black"/>
<path d="M543 370C654.494 308.077 873.093 306.594 996 370" stroke="black" stroke-width="8"/>
<line x1="998.901" y1="371.325" x2="982.455" y2="339.853" stroke="black" stroke-width="8"/>
<line x1="963.677" y1="372.877" x2="999.072" y2="370.013" stroke="black" stroke-width="8"/>
<circle cx="1000" cy="371" r="3" fill="black"/>
<path d="M699.876 268.997H678.309V286.634H703.362V292H671.746V242.234H703.021V247.635H678.309V263.631H699.876V268.997ZM721.854 283.421L731.014 255.018H737.474L724.212 292H719.393L705.994 255.018H712.454L721.854 283.421ZM758.426 292.684C753.413 292.684 749.334 291.043 746.189 287.762C743.045 284.458 741.473 280.049 741.473 274.534V273.372C741.473 269.703 742.168 266.434 743.558 263.562C744.97 260.669 746.93 258.413 749.437 256.795C751.966 255.154 754.7 254.334 757.64 254.334C762.448 254.334 766.185 255.918 768.851 259.085C771.517 262.252 772.85 266.787 772.85 272.688V275.32H747.796C747.887 278.966 748.947 281.917 750.975 284.173C753.025 286.406 755.623 287.522 758.768 287.522C761.001 287.522 762.892 287.067 764.441 286.155C765.991 285.244 767.347 284.036 768.509 282.532L772.371 285.54C769.272 290.302 764.624 292.684 758.426 292.684ZM757.64 259.529C755.088 259.529 752.946 260.464 751.214 262.332C749.482 264.178 748.411 266.775 748.001 270.125H766.526V269.646C766.344 266.434 765.478 263.95 763.929 262.195C762.379 260.418 760.283 259.529 757.64 259.529ZM786.18 255.018L786.385 259.666C789.21 256.111 792.902 254.334 797.459 254.334C805.275 254.334 809.217 258.743 809.285 267.562V292H802.962V267.527C802.939 264.861 802.324 262.89 801.116 261.614C799.931 260.338 798.074 259.7 795.545 259.7C793.494 259.7 791.694 260.247 790.145 261.341C788.595 262.435 787.387 263.87 786.521 265.647V292H780.198V255.018H786.18ZM827.4 246.062V255.018H834.305V259.905H827.4V282.84C827.4 284.321 827.708 285.438 828.323 286.189C828.938 286.919 829.987 287.283 831.468 287.283C832.197 287.283 833.2 287.146 834.476 286.873V292C832.812 292.456 831.194 292.684 829.622 292.684C826.797 292.684 824.666 291.829 823.23 290.12C821.795 288.411 821.077 285.984 821.077 282.84V259.905H814.344V255.018H821.077V246.062H827.4ZM863.255 282.19C863.255 280.481 862.605 279.16 861.307 278.226C860.031 277.269 857.786 276.448 854.573 275.765C851.383 275.081 848.842 274.261 846.951 273.304C845.083 272.347 843.693 271.207 842.781 269.886C841.893 268.564 841.448 266.992 841.448 265.169C841.448 262.138 842.724 259.575 845.276 257.479C847.851 255.382 851.132 254.334 855.12 254.334C859.313 254.334 862.708 255.416 865.306 257.581C867.926 259.746 869.236 262.514 869.236 265.887H862.879C862.879 264.155 862.138 262.662 860.657 261.409C859.199 260.156 857.353 259.529 855.12 259.529C852.819 259.529 851.019 260.031 849.72 261.033C848.421 262.036 847.771 263.346 847.771 264.964C847.771 266.491 848.375 267.641 849.583 268.416C850.791 269.191 852.967 269.931 856.111 270.638C859.279 271.344 861.842 272.187 863.802 273.167C865.761 274.147 867.208 275.332 868.143 276.722C869.1 278.089 869.578 279.764 869.578 281.746C869.578 285.05 868.257 287.705 865.613 289.71C862.97 291.692 859.541 292.684 855.325 292.684C852.363 292.684 849.743 292.16 847.464 291.111C845.185 290.063 843.396 288.605 842.098 286.736C840.822 284.845 840.184 282.806 840.184 280.618H846.507C846.621 282.737 847.464 284.424 849.036 285.677C850.631 286.907 852.728 287.522 855.325 287.522C857.718 287.522 859.632 287.044 861.067 286.087C862.526 285.107 863.255 283.808 863.255 282.19Z" fill="black"/>
<path d="M1003 546.864C891.506 608.787 672.907 610.27 550 546.864" stroke="black" stroke-width="8"/>
<line x1="547.099" y1="545.538" x2="563.545" y2="577.011" stroke="black" stroke-width="8"/>
<line x1="582.323" y1="543.987" x2="546.928" y2="546.851" stroke="black" stroke-width="8"/>
<circle cx="546" cy="545.864" r="3" transform="rotate(-180 546 545.864)" fill="black"/>
<path d="M697.613 663.817C691.985 662.2 687.883 660.217 685.309 657.87C682.757 655.5 681.48 652.584 681.48 649.12C681.48 645.201 683.041 641.965 686.163 639.413C689.308 636.838 693.386 635.551 698.399 635.551C701.817 635.551 704.859 636.212 707.525 637.533C710.214 638.855 712.288 640.678 713.746 643.002C715.227 645.326 715.968 647.867 715.968 650.624H709.371C709.371 647.616 708.414 645.258 706.5 643.549C704.586 641.817 701.886 640.951 698.399 640.951C695.164 640.951 692.634 641.669 690.812 643.104C689.011 644.517 688.111 646.488 688.111 649.018C688.111 651.046 688.966 652.766 690.675 654.179C692.407 655.569 695.335 656.845 699.459 658.007C703.606 659.169 706.842 660.456 709.166 661.869C711.513 663.259 713.245 664.888 714.361 666.757C715.501 668.625 716.07 670.824 716.07 673.354C716.07 677.387 714.498 680.622 711.354 683.061C708.209 685.476 704.005 686.684 698.741 686.684C695.323 686.684 692.133 686.034 689.171 684.735C686.209 683.414 683.919 681.614 682.301 679.335C680.706 677.056 679.908 674.47 679.908 671.576H686.505C686.505 674.584 687.61 676.965 689.82 678.72C692.053 680.451 695.027 681.317 698.741 681.317C702.205 681.317 704.859 680.611 706.705 679.198C708.551 677.785 709.474 675.86 709.474 673.422C709.474 670.984 708.619 669.104 706.91 667.782C705.201 666.438 702.102 665.116 697.613 663.817ZM732.101 640.062V649.018H739.005V653.905H732.101V676.84C732.101 678.321 732.408 679.438 733.023 680.189C733.639 680.919 734.687 681.283 736.168 681.283C736.897 681.283 737.9 681.146 739.176 680.873V686C737.512 686.456 735.895 686.684 734.322 686.684C731.497 686.684 729.366 685.829 727.931 684.12C726.495 682.411 725.777 679.984 725.777 676.84V653.905H719.044V649.018H725.777V640.062H732.101ZM769.254 686C768.889 685.271 768.593 683.972 768.365 682.104C765.426 685.157 761.917 686.684 757.838 686.684C754.192 686.684 751.196 685.658 748.849 683.607C746.524 681.534 745.362 678.913 745.362 675.746C745.362 671.895 746.821 668.91 749.737 666.791C752.677 664.649 756.801 663.578 762.11 663.578H768.263V660.673C768.263 658.463 767.602 656.708 766.28 655.409C764.959 654.088 763.01 653.427 760.436 653.427C758.18 653.427 756.288 653.996 754.762 655.136C753.235 656.275 752.472 657.654 752.472 659.271H746.114C746.114 657.426 746.764 655.648 748.062 653.939C749.384 652.208 751.161 650.84 753.395 649.838C755.65 648.835 758.123 648.334 760.812 648.334C765.073 648.334 768.411 649.405 770.826 651.547C773.242 653.666 774.495 656.594 774.586 660.331V677.353C774.586 680.748 775.019 683.448 775.885 685.453V686H769.254ZM758.761 681.181C760.743 681.181 762.623 680.668 764.4 679.643C766.178 678.617 767.465 677.284 768.263 675.644V668.056H763.307C755.559 668.056 751.686 670.323 751.686 674.857C751.686 676.84 752.346 678.389 753.668 679.506C754.99 680.622 756.687 681.181 758.761 681.181ZM793.077 640.062V649.018H799.981V653.905H793.077V676.84C793.077 678.321 793.385 679.438 794 680.189C794.615 680.919 795.663 681.283 797.145 681.283C797.874 681.283 798.876 681.146 800.152 680.873V686C798.489 686.456 796.871 686.684 795.299 686.684C792.473 686.684 790.343 685.829 788.907 684.12C787.472 682.411 786.754 679.984 786.754 676.84V653.905H780.021V649.018H786.754V640.062H793.077ZM822.745 686.684C817.732 686.684 813.653 685.043 810.509 681.762C807.364 678.458 805.792 674.049 805.792 668.534V667.372C805.792 663.703 806.487 660.434 807.877 657.562C809.29 654.669 811.249 652.413 813.756 650.795C816.285 649.154 819.02 648.334 821.959 648.334C826.767 648.334 830.504 649.918 833.17 653.085C835.836 656.252 837.169 660.787 837.169 666.688V669.32H812.115C812.206 672.966 813.266 675.917 815.294 678.173C817.345 680.406 819.942 681.522 823.087 681.522C825.32 681.522 827.211 681.067 828.761 680.155C830.31 679.244 831.666 678.036 832.828 676.532L836.69 679.54C833.591 684.302 828.943 686.684 822.745 686.684ZM821.959 653.529C819.407 653.529 817.265 654.464 815.533 656.332C813.801 658.178 812.73 660.775 812.32 664.125H830.846V663.646C830.663 660.434 829.798 657.95 828.248 656.195C826.699 654.418 824.602 653.529 821.959 653.529ZM866.051 676.19C866.051 674.481 865.401 673.16 864.103 672.226C862.826 671.269 860.582 670.448 857.369 669.765C854.179 669.081 851.638 668.261 849.747 667.304C847.879 666.347 846.489 665.207 845.577 663.886C844.688 662.564 844.244 660.992 844.244 659.169C844.244 656.138 845.52 653.575 848.072 651.479C850.647 649.382 853.928 648.334 857.916 648.334C862.109 648.334 865.504 649.416 868.102 651.581C870.722 653.746 872.032 656.514 872.032 659.887H865.675C865.675 658.155 864.934 656.662 863.453 655.409C861.995 654.156 860.149 653.529 857.916 653.529C855.615 653.529 853.814 654.031 852.516 655.033C851.217 656.036 850.567 657.346 850.567 658.964C850.567 660.491 851.171 661.641 852.379 662.416C853.587 663.191 855.763 663.931 858.907 664.638C862.075 665.344 864.638 666.187 866.598 667.167C868.557 668.147 870.004 669.332 870.938 670.722C871.896 672.089 872.374 673.764 872.374 675.746C872.374 679.05 871.052 681.705 868.409 683.71C865.766 685.692 862.337 686.684 858.121 686.684C855.159 686.684 852.538 686.16 850.26 685.111C847.981 684.063 846.192 682.605 844.894 680.736C843.618 678.845 842.979 676.806 842.979 674.618H849.303C849.417 676.737 850.26 678.424 851.832 679.677C853.427 680.907 855.523 681.522 858.121 681.522C860.514 681.522 862.428 681.044 863.863 680.087C865.322 679.107 866.051 677.808 866.051 676.19Z" fill="black"/>
<rect x="0.5" y="0.5" width="2883" height="799" stroke="black"/>
</svg>
