<svg width="807" height="486" viewBox="0 0 807 486" fill="none" xmlns="http://www.w3.org/2000/svg">
    <line x1="189" y1="190" x2="189" y2="290" stroke="black" stroke-width="18"/>
    <line x1="271.103" y1="147.794" x2="184.5" y2="197.794" stroke="black" stroke-width="18"/>
    <line x1="348.782" y1="197.794" x2="262.18" y2="147.794" stroke="black" stroke-width="18"/>
    <line x1="271.103" y1="331.794" x2="184.5" y2="281.794" stroke="black" stroke-width="18"/>
    <line x1="267.353" y1="240.433" x2="182.482" y2="191.433" stroke="black"/>
    <path d="M348.603 282L262 332" stroke="black" stroke-width="18"/>
    <path d="M350.87 191L266 240" stroke="black"/>
    <line x1="344" y1="190" x2="344" y2="290" stroke="black" stroke-width="18"/>
    <line x1="266.5" y1="240" x2="266.5" y2="338" stroke="black"/>
    <path d="M266.5 160.5L335 200L266.471 239.964L198 200L266.5 160.5Z" fill="#005593"/>
    <path d="M266.5 160.5L335 200L266.471 239.964L198 200L266.5 160.5Z" fill="#005593"/>
    <path d="M266.5 160.5L335 200L266.471 239.964L198 200L266.5 160.5Z" fill="#005593"/>
    <path d="M266 240L335 200V279.5L266.5 319L266 240Z" fill="#4E84B7"/>
    <path d="M198 200L266.5 240V319L197.5 279L198 200Z" fill="#54ACDD"/>
    <path d="M675 239.5C675 288.876 644.169 334.783 591.816 368.777C539.55 402.715 466.808 424 386 424C305.192 424 232.45 402.715 180.184 368.777C127.831 334.783 97 288.876 97 239.5C97 190.124 127.831 144.217 180.184 110.223C232.45 76.2852 305.192 55 386 55C466.808 55 539.55 76.2852 591.816 110.223C644.169 144.217 675 190.124 675 239.5Z"
          stroke="black" stroke-width="18"/>
    <path d="M662 239.5C662 285.179 632.747 327.839 582.71 359.529C532.785 391.149 463.261 411 386 411C308.739 411 239.215 391.149 189.29 359.529C139.253 327.839 110 285.179 110 239.5C110 193.821 139.253 151.161 189.29 119.471C239.215 87.8513 308.739 68 386 68C463.261 68 532.785 87.8513 582.71 119.471C632.747 151.161 662 193.821 662 239.5Z"
          stroke="#54ACDD" stroke-width="18"/>
    <path d="M390.427 270V206.016H411.345C418.288 206.016 423.503 207.451 426.989 210.322C430.505 213.193 432.263 217.441 432.263 223.066C432.263 226.055 431.413 228.706 429.714 231.021C428.015 233.306 425.7 235.078 422.771 236.338C426.228 237.305 428.952 239.15 430.944 241.875C432.966 244.57 433.977 247.793 433.977 251.543C433.977 257.285 432.116 261.797 428.396 265.078C424.675 268.359 419.416 270 412.619 270H390.427ZM398.864 240.073V263.101H412.795C416.721 263.101 419.812 262.09 422.067 260.068C424.353 258.018 425.495 255.205 425.495 251.631C425.495 243.926 421.306 240.073 412.927 240.073H398.864ZM398.864 233.306H411.608C415.3 233.306 418.244 232.383 420.441 230.537C422.668 228.691 423.781 226.187 423.781 223.022C423.781 219.507 422.756 216.958 420.705 215.376C418.654 213.765 415.534 212.959 411.345 212.959H398.864V233.306ZM454.982 263.101H485.305V270H446.501V206.016H454.982V263.101ZM491.501 245.786C491.501 241.128 492.409 236.938 494.226 233.218C496.071 229.497 498.62 226.626 501.872 224.604C505.153 222.583 508.889 221.572 513.078 221.572C519.553 221.572 524.782 223.813 528.767 228.296C532.78 232.778 534.787 238.74 534.787 246.182V246.753C534.787 251.382 533.894 255.542 532.106 259.233C530.349 262.896 527.814 265.752 524.504 267.803C521.223 269.854 517.443 270.879 513.166 270.879C506.721 270.879 501.491 268.638 497.478 264.155C493.493 259.673 491.501 253.74 491.501 246.357V245.786ZM499.675 246.753C499.675 252.026 500.891 256.26 503.322 259.453C505.783 262.646 509.064 264.243 513.166 264.243C517.297 264.243 520.578 262.632 523.01 259.409C525.441 256.157 526.657 251.616 526.657 245.786C526.657 240.571 525.412 236.353 522.922 233.13C520.461 229.878 517.18 228.252 513.078 228.252C509.064 228.252 505.827 229.849 503.366 233.042C500.905 236.235 499.675 240.806 499.675 246.753ZM593.322 249.697C592.531 256.465 590.026 261.694 585.808 265.386C581.618 269.048 576.037 270.879 569.064 270.879C561.506 270.879 555.441 268.169 550.871 262.749C546.33 257.329 544.06 250.078 544.06 240.996V234.844C544.06 228.896 545.114 223.667 547.224 219.155C549.362 214.644 552.38 211.187 556.276 208.784C560.173 206.353 564.685 205.137 569.812 205.137C576.608 205.137 582.058 207.041 586.159 210.85C590.261 214.629 592.648 219.873 593.322 226.582H584.841C584.108 221.484 582.512 217.793 580.051 215.508C577.619 213.223 574.206 212.08 569.812 212.08C564.421 212.08 560.188 214.072 557.111 218.057C554.064 222.041 552.541 227.71 552.541 235.063V241.26C552.541 248.203 553.991 253.726 556.892 257.827C559.792 261.929 563.85 263.979 569.064 263.979C573.752 263.979 577.341 262.925 579.831 260.815C582.351 258.677 584.021 254.971 584.841 249.697H593.322Z"
          fill="black"/>
    <path d="M574.648 74H567.148V17.125H574.648V74ZM611.875 62.7891C611.875 60.8359 611.133 59.3255 609.648 58.2578C608.19 57.1641 605.625 56.2266 601.953 55.4453C598.307 54.6641 595.404 53.7266 593.242 52.6328C591.107 51.5391 589.518 50.237 588.477 48.7266C587.461 47.2161 586.953 45.4193 586.953 43.3359C586.953 39.8724 588.411 36.9427 591.328 34.5469C594.271 32.151 598.021 30.9531 602.578 30.9531C607.37 30.9531 611.25 32.1901 614.219 34.6641C617.214 37.138 618.711 40.3021 618.711 44.1562H611.445C611.445 42.1771 610.599 40.4714 608.906 39.0391C607.24 37.6068 605.13 36.8906 602.578 36.8906C599.948 36.8906 597.891 37.4635 596.406 38.6094C594.922 39.7552 594.18 41.2526 594.18 43.1016C594.18 44.8464 594.87 46.1615 596.25 47.0469C597.63 47.9323 600.117 48.7786 603.711 49.5859C607.331 50.3932 610.26 51.3568 612.5 52.4766C614.74 53.5964 616.393 54.9505 617.461 56.5391C618.555 58.1016 619.102 60.0156 619.102 62.2812C619.102 66.0573 617.591 69.0911 614.57 71.3828C611.549 73.6484 607.63 74.7812 602.812 74.7812C599.427 74.7812 596.432 74.1823 593.828 72.9844C591.224 71.7865 589.18 70.1198 587.695 67.9844C586.237 65.8229 585.508 63.4922 585.508 60.9922H592.734C592.865 63.4141 593.828 65.3411 595.625 66.7734C597.448 68.1797 599.844 68.8828 602.812 68.8828C605.547 68.8828 607.734 68.3359 609.375 67.2422C611.042 66.1224 611.875 64.638 611.875 62.7891ZM626.602 52.4766C626.602 48.3359 627.409 44.612 629.023 41.3047C630.664 37.9974 632.93 35.4453 635.82 33.6484C638.737 31.8516 642.057 30.9531 645.781 30.9531C651.536 30.9531 656.185 32.9453 659.727 36.9297C663.294 40.9141 665.078 46.2135 665.078 52.8281V53.3359C665.078 57.4505 664.284 61.1484 662.695 64.4297C661.133 67.6849 658.88 70.224 655.938 72.0469C653.021 73.8698 649.661 74.7812 645.859 74.7812C640.13 74.7812 635.482 72.7891 631.914 68.8047C628.372 64.8203 626.602 59.5469 626.602 52.9844V52.4766ZM633.867 53.3359C633.867 58.0234 634.948 61.7865 637.109 64.625C639.297 67.4635 642.214 68.8828 645.859 68.8828C649.531 68.8828 652.448 67.4505 654.609 64.5859C656.771 61.6953 657.852 57.6589 657.852 52.4766C657.852 47.8411 656.745 44.0911 654.531 41.2266C652.344 38.3359 649.427 36.8906 645.781 36.8906C642.214 36.8906 639.336 38.3099 637.148 41.1484C634.961 43.987 633.867 48.0495 633.867 53.3359ZM681.992 74H674.766V14H681.992V74ZM719.688 74C719.271 73.1667 718.932 71.6823 718.672 69.5469C715.312 73.0365 711.302 74.7812 706.641 74.7812C702.474 74.7812 699.049 73.6094 696.367 71.2656C693.711 68.8958 692.383 65.901 692.383 62.2812C692.383 57.8802 694.049 54.4688 697.383 52.0469C700.742 49.599 705.456 48.375 711.523 48.375H718.555V45.0547C718.555 42.5286 717.799 40.5234 716.289 39.0391C714.779 37.5286 712.552 36.7734 709.609 36.7734C707.031 36.7734 704.87 37.4245 703.125 38.7266C701.38 40.0286 700.508 41.6042 700.508 43.4531H693.242C693.242 41.3438 693.984 39.3125 695.469 37.3594C696.979 35.3802 699.01 33.8177 701.562 32.6719C704.141 31.526 706.966 30.9531 710.039 30.9531C714.909 30.9531 718.724 32.1771 721.484 34.625C724.245 37.0469 725.677 40.3932 725.781 44.6641V64.1172C725.781 67.9974 726.276 71.0833 727.266 73.375V74H719.688ZM707.695 68.4922C709.961 68.4922 712.109 67.9062 714.141 66.7344C716.172 65.5625 717.643 64.0391 718.555 62.1641V53.4922H712.891C704.036 53.4922 699.609 56.0833 699.609 61.2656C699.609 63.5312 700.365 65.3021 701.875 66.5781C703.385 67.8542 705.326 68.4922 707.695 68.4922ZM746.914 21.5V31.7344H754.805V37.3203H746.914V63.5312C746.914 65.224 747.266 66.5 747.969 67.3594C748.672 68.1927 749.87 68.6094 751.562 68.6094C752.396 68.6094 753.542 68.4531 755 68.1406V74C753.099 74.5208 751.25 74.7812 749.453 74.7812C746.224 74.7812 743.789 73.8047 742.148 71.8516C740.508 69.8984 739.688 67.125 739.688 63.5312V37.3203H731.992V31.7344H739.688V21.5H746.914ZM780.82 74.7812C775.091 74.7812 770.43 72.9062 766.836 69.1562C763.242 65.3802 761.445 60.3411 761.445 54.0391V52.7109C761.445 48.5182 762.24 44.7812 763.828 41.5C765.443 38.1927 767.682 35.6146 770.547 33.7656C773.438 31.8906 776.562 30.9531 779.922 30.9531C785.417 30.9531 789.688 32.763 792.734 36.3828C795.781 40.0026 797.305 45.1849 797.305 51.9297V54.9375H768.672C768.776 59.1042 769.987 62.4766 772.305 65.0547C774.648 67.6068 777.617 68.8828 781.211 68.8828C783.763 68.8828 785.924 68.362 787.695 67.3203C789.466 66.2786 791.016 64.8984 792.344 63.1797L796.758 66.6172C793.216 72.0599 787.904 74.7812 780.82 74.7812ZM779.922 36.8906C777.005 36.8906 774.557 37.9583 772.578 40.0938C770.599 42.2031 769.375 45.1719 768.906 49H790.078V48.4531C789.87 44.7812 788.88 41.9427 787.109 39.9375C785.339 37.9062 782.943 36.8906 779.922 36.8906Z"
          fill="black"/>
    <path d="M104.844 177.211C104.844 175.961 105.208 174.919 105.938 174.086C106.693 173.253 107.812 172.836 109.297 172.836C110.781 172.836 111.901 173.253 112.656 174.086C113.438 174.919 113.828 175.961 113.828 177.211C113.828 178.409 113.438 179.411 112.656 180.219C111.901 181.026 110.781 181.43 109.297 181.43C107.812 181.43 106.693 181.026 105.938 180.219C105.208 179.411 104.844 178.409 104.844 177.211Z"
          fill="black"/>
</svg>
